<?xml version="1.0" standalone="no"?>
<!DOCTYPE svg PUBLIC "-//W3C//DTD SVG 20010904//EN"
 "http://www.w3.org/TR/2001/REC-SVG-20010904/DTD/svg10.dtd">
<svg version="1.0" xmlns="http://www.w3.org/2000/svg"
 width="1080.000000pt" height="1080.000000pt" viewBox="0 0 1080.000000 1080.000000"
 preserveAspectRatio="xMidYMid meet">
<metadata>
Created by potrace 1.11, written by Peter Selinger 2001-2013
</metadata>
<g transform="translate(0.000000,1080.000000) scale(0.100000,-0.100000)"
fill="#000000" stroke="none">
<path d="M5160 10470 c-169 -7 -287 -17 -302 -27 -4 -2 2 -17 13 -32 14 -20
33 -31 59 -35 49 -8 55 -17 30 -48 -22 -28 -24 -118 -3 -118 6 0 15 -4 18 -10
4 -6 -16 -10 -52 -9 -32 0 -51 3 -43 6 46 15 46 15 25 23 -35 15 -51 11 -81
-20 -29 -29 -67 -39 -79 -20 -4 6 5 10 19 10 24 0 26 3 26 44 0 35 -5 49 -25
64 -35 28 -34 43 5 56 24 9 40 23 52 47 l16 34 -30 3 c-45 5 -323 -36 -463
-68 -106 -24 -260 -63 -264 -66 -3 -3 8 -18 24 -34 24 -26 34 -29 62 -24 40 8
53 -14 29 -50 -14 -23 -14 -28 1 -70 10 -25 21 -46 26 -46 4 0 5 -4 2 -10 -9
-15 -45 -12 -51 5 -9 21 -58 19 -78 -4 -13 -15 -14 -20 -4 -24 7 -2 9 -8 5
-13 -15 -16 -42 13 -50 55 -6 31 -15 45 -38 56 -38 20 -37 38 6 58 23 11 35
24 35 37 0 12 5 30 10 41 12 21 6 23 -36 10 -16 -5 -69 -22 -119 -36 l-89 -27
33 -30 c27 -24 38 -28 66 -22 42 8 55 -14 31 -50 -14 -23 -14 -28 5 -71 24
-53 20 -63 -16 -47 -33 15 -58 15 -73 0 -9 -9 -7 -14 6 -24 15 -12 14 -13 -10
-14 -14 0 -33 -3 -41 -6 -9 -3 -15 0 -14 8 2 64 -4 79 -38 95 -44 21 -44 39
-1 60 28 13 35 23 39 52 2 20 2 38 0 40 -5 6 -97 -24 -213 -71 -52 -21 -97
-38 -102 -38 -4 0 -42 -16 -85 -35 l-77 -36 29 -24 c25 -21 37 -24 73 -19 38
6 42 4 42 -16 0 -12 -5 -30 -10 -41 -9 -15 -5 -27 15 -56 14 -21 25 -41 25
-45 0 -4 -21 -5 -46 -1 -38 5 -49 3 -60 -11 -7 -10 -10 -24 -7 -32 3 -8 -1
-14 -11 -14 -9 0 -16 -5 -16 -11 0 -25 -18 4 -29 46 -9 37 -17 47 -46 59 -43
18 -44 28 -6 55 22 16 30 31 33 61 2 22 0 40 -5 40 -19 0 -217 -100 -217 -109
0 -6 6 -11 14 -11 7 0 19 -7 26 -15 10 -12 24 -14 63 -9 47 7 50 6 43 -12 -20
-51 -17 -69 14 -103 17 -18 29 -36 26 -39 -5 -5 -50 -6 -71 -2 -22 5 -35 -1
-46 -21 -10 -19 -9 -20 13 -14 21 7 22 6 9 -9 -8 -10 -22 -15 -32 -13 -9 2
-22 -4 -30 -14 -7 -11 -19 -19 -25 -19 -7 0 -14 -6 -17 -12 -2 -7 -8 -9 -13
-5 -8 8 15 32 40 40 7 2 6 16 -2 44 -10 34 -19 44 -47 53 -41 14 -44 27 -11
55 16 13 26 34 29 63 3 23 3 42 1 42 -3 0 -28 -13 -57 -29 -29 -16 -76 -41
-104 -57 -29 -15 -53 -31 -53 -35 0 -5 16 -16 35 -25 30 -14 40 -14 66 -4 39
17 52 4 39 -39 -8 -29 -6 -37 22 -72 17 -21 29 -40 27 -41 -2 -2 -13 -9 -24
-16 -11 -7 -28 -15 -37 -18 -10 -4 -18 -10 -18 -15 0 -5 -4 -9 -10 -9 -20 0
-10 17 17 29 25 11 26 14 10 23 -24 13 -47 -6 -47 -39 0 -15 -8 -26 -22 -32
-20 -7 -24 -3 -38 37 -12 38 -20 47 -47 54 -45 12 -50 27 -18 52 22 18 28 31
29 64 1 37 -1 41 -19 36 -11 -4 -27 -13 -36 -20 -8 -8 -18 -14 -22 -14 -8 0
-137 -81 -137 -86 0 -2 17 -12 38 -23 33 -17 41 -17 62 -5 44 24 53 19 47 -28
-5 -37 -2 -48 23 -77 29 -34 30 -34 50 -16 11 10 20 14 20 8 0 -25 -43 -48
-85 -46 -28 1 -48 -4 -56 -13 -17 -21 -7 -25 24 -9 29 15 37 5 12 -15 -8 -7
-15 -9 -15 -4 0 4 -10 -2 -23 -14 -22 -21 -24 -21 -38 -5 -8 10 -20 30 -27 46
-6 15 -18 27 -26 27 -8 0 -27 5 -41 10 l-27 10 29 33 c24 27 29 40 25 70 -2
20 -7 37 -11 37 -10 0 -144 -90 -177 -119 -21 -18 -24 -26 -14 -29 8 -2 25 -8
37 -14 17 -8 30 -8 48 0 14 7 35 12 46 12 17 0 19 -4 13 -35 -5 -29 -2 -40 23
-68 16 -18 36 -31 44 -29 10 3 10 0 -3 -13 -12 -13 -30 -18 -57 -17 -32 2 -43
-3 -52 -20 -10 -18 -9 -20 6 -14 16 6 16 5 3 -16 -22 -32 -39 -29 -67 15 -14
21 -32 37 -43 37 -11 0 -28 5 -40 11 -20 11 -20 11 7 39 24 25 26 33 20 70 -4
22 -11 40 -16 38 -20 -7 -178 -134 -179 -143 0 -6 16 -17 35 -24 30 -10 38
-10 57 3 12 9 31 16 41 16 16 0 18 -5 12 -38 -6 -36 -3 -41 31 -71 l36 -32
-27 -29 c-16 -16 -32 -27 -38 -23 -5 3 -3 9 4 14 7 4 10 11 6 16 -11 10 -41
-11 -45 -32 -3 -12 0 -15 10 -10 7 5 -3 -8 -21 -28 -33 -35 -67 -53 -42 -23
19 22 -24 86 -57 86 -15 0 -34 5 -42 10 -12 8 -11 13 8 39 23 32 31 111 11
111 -11 0 -143 -109 -172 -143 -18 -20 -17 -21 20 -33 33 -12 41 -11 70 7 41
25 57 17 49 -25 -5 -26 -1 -37 21 -58 16 -14 35 -28 43 -30 10 -3 0 -19 -34
-56 -27 -29 -53 -52 -59 -52 -6 0 -18 -7 -28 -16 -17 -15 -18 -15 -17 2 1 11
-6 31 -16 47 -15 22 -26 27 -57 27 -45 0 -52 20 -18 56 18 19 19 26 9 63 l-11
42 -57 -50 c-31 -27 -72 -65 -91 -85 l-34 -35 27 -11 c37 -14 49 -13 85 8 28
15 33 15 41 2 6 -8 8 -25 5 -37 -4 -18 3 -29 34 -50 42 -29 51 -43 27 -43 -7
0 -16 -9 -19 -20 -3 -11 -11 -20 -19 -20 -10 0 -9 3 2 10 12 8 11 10 -8 10
-25 0 -42 -28 -23 -39 9 -6 9 -10 -1 -18 -31 -24 -48 -22 -70 7 -17 23 -30 30
-55 30 -40 0 -53 22 -28 50 13 14 15 28 10 59 -4 24 -12 41 -20 41 -13 0 -165
-158 -165 -172 0 -3 18 -9 39 -13 32 -5 46 -2 71 16 26 20 32 21 40 9 5 -8 10
-27 10 -42 0 -27 43 -68 71 -68 8 0 7 -6 -4 -18 -10 -10 -17 -23 -17 -29 0
-12 -56 -63 -70 -63 -5 0 -10 -6 -10 -14 0 -8 -7 -17 -16 -20 -8 -3 -12 -2 -9
4 3 6 -3 24 -15 40 -18 26 -28 30 -66 30 -50 0 -54 9 -25 54 17 25 17 32 6 60
-7 17 -17 31 -22 31 -11 0 -153 -161 -153 -173 0 -5 16 -12 37 -15 29 -5 42
-2 65 18 35 30 45 26 54 -20 7 -39 52 -79 78 -69 23 9 19 -9 -7 -35 -13 -12
-31 -19 -39 -16 -8 3 -21 -1 -28 -10 -11 -13 -10 -18 4 -28 15 -11 14 -15 -14
-42 -21 -20 -30 -24 -30 -14 0 30 -44 59 -88 59 -47 0 -53 13 -27 54 14 20 14
27 0 59 -8 21 -19 37 -23 37 -15 0 -292 -380 -292 -401 0 -4 16 -11 36 -15 32
-6 39 -3 58 21 28 35 51 29 61 -14 7 -31 27 -48 73 -60 21 -6 23 -9 11 -21 -8
-8 -21 -28 -29 -45 -8 -16 -21 -34 -27 -38 -7 -4 -13 -14 -13 -22 0 -27 -22
-27 -50 0 -25 24 -34 27 -70 21 -48 -8 -59 7 -37 50 13 25 13 32 -6 67 -11 21
-23 35 -27 30 -16 -16 -120 -193 -120 -203 0 -5 18 -10 40 -10 29 0 42 5 50
20 6 11 19 24 30 30 17 9 21 5 31 -29 10 -33 19 -43 57 -58 l46 -19 -24 -22
c-13 -12 -26 -19 -30 -17 -4 3 -13 -2 -20 -10 -10 -12 -10 -21 -2 -41 11 -22
9 -26 -11 -33 -16 -6 -29 -3 -46 11 -19 15 -34 17 -68 12 -47 -7 -53 2 -32 49
9 19 6 30 -12 61 l-22 38 -18 -23 c-10 -13 -19 -28 -19 -32 0 -4 -18 -39 -40
-78 -22 -39 -40 -75 -40 -80 0 -5 18 -9 39 -9 33 0 43 5 61 30 26 37 41 35 56
-9 8 -26 20 -37 50 -47 21 -7 38 -12 39 -11 2 12 24 42 33 45 13 4 -13 -54
-29 -63 -5 -4 -9 -14 -9 -24 0 -10 -7 -25 -16 -32 -15 -12 -16 -11 -9 9 6 22
5 23 -14 13 -22 -12 -28 -37 -10 -43 7 -2 6 -13 -2 -33 -7 -17 -12 -33 -11
-37 4 -17 -16 -6 -21 11 -2 10 -15 26 -29 35 -19 13 -30 13 -61 4 -46 -14 -53
-7 -40 37 9 29 8 38 -8 59 -10 13 -19 29 -19 36 0 27 -25 -9 -65 -95 -24 -52
-46 -104 -50 -117 -4 -13 -11 -25 -15 -28 -6 -4 -90 -205 -90 -216 0 -2 16 -4
34 -4 28 0 40 7 62 35 14 19 31 35 36 35 5 0 16 -16 24 -35 10 -25 21 -35 37
-35 12 0 29 -4 37 -10 9 -5 19 -5 27 2 10 8 13 6 13 -6 0 -9 -18 -27 -40 -41
-29 -18 -38 -29 -33 -42 4 -10 10 -20 13 -23 10 -7 0 -70 -11 -70 -5 0 -9 4
-9 9 0 5 -15 19 -34 30 -31 20 -36 20 -69 6 -50 -21 -50 -20 -43 25 5 35 2 46
-21 75 l-27 34 -12 -27 c-25 -56 -76 -204 -71 -208 3 -3 21 -2 41 1 26 5 41
16 55 41 11 19 24 34 30 34 5 0 16 -15 25 -34 14 -30 22 -35 67 -41 37 -5 48
-10 40 -18 -6 -6 -11 -24 -11 -39 0 -15 -4 -28 -10 -28 -5 0 -10 8 -10 17 0
16 -1 16 -17 1 -14 -14 -15 -22 -5 -43 12 -25 16 -65 8 -65 -3 0 -21 10 -42
22 -37 22 -37 22 -107 -7 -16 -7 -18 -2 -16 38 2 36 -3 51 -24 76 -23 28 -27
30 -35 14 -16 -30 -65 -213 -59 -219 3 -3 20 -3 37 1 22 5 36 17 47 41 20 42
38 43 58 4 10 -20 23 -30 38 -30 12 0 32 -3 44 -6 18 -5 25 -1 33 17 9 20 9
17 4 -16 -3 -22 -7 -40 -7 -40 -9 0 -43 -25 -51 -38 -7 -12 -6 -21 7 -35 36
-39 7 -61 -49 -37 -32 13 -37 13 -66 -5 -17 -10 -35 -17 -40 -14 -4 3 -8 23
-8 46 0 32 -6 46 -30 68 -16 15 -30 27 -30 26 0 -2 -9 -38 -20 -82 -40 -152
-92 -414 -84 -423 2 -2 20 3 41 12 28 11 39 22 45 45 12 46 28 50 58 14 23
-28 33 -32 73 -32 38 0 47 -3 47 -18 0 -9 -10 -22 -22 -27 -14 -6 -24 -21 -26
-37 -3 -28 12 -39 21 -15 3 6 6 -2 6 -19 1 -38 -15 -46 -70 -38 -30 5 -44 2
-59 -11 -27 -25 -50 -12 -50 27 0 26 -8 39 -34 60 l-34 27 -11 -67 c-24 -147
-49 -442 -37 -442 4 0 22 7 41 14 23 10 35 22 35 35 0 55 24 65 60 26 21 -22
30 -25 66 -19 l41 6 7 -87 c4 -48 5 -90 2 -92 -3 -3 -12 0 -21 7 -8 7 -15 10
-15 7 0 -3 -14 -2 -30 3 -25 7 -35 4 -59 -16 -39 -33 -48 -30 -56 15 -5 31
-14 44 -40 60 -18 10 -36 17 -39 14 -10 -10 -7 -491 3 -497 5 -4 23 2 39 11
22 13 32 27 36 55 7 44 31 51 60 17 12 -14 24 -19 39 -15 12 3 32 6 45 6 19 0
22 5 22 44 0 43 0 43 -41 50 -34 5 -45 3 -71 -19 -39 -33 -46 -32 -54 11 -5
25 -16 42 -40 57 -43 28 -43 39 1 60 22 11 35 24 35 36 0 51 24 65 55 31 21
-23 93 -28 113 -8 19 19 14 -3 -8 -40 -26 -42 -25 -54 5 -102 27 -43 30 -72
19 -203 l-7 -77 -42 0 c-32 0 -49 -7 -70 -26 -27 -25 -29 -25 -42 -8 -7 10
-13 26 -13 36 0 17 -53 58 -74 58 -11 0 0 -214 11 -235 13 -23 73 29 73 63 0
47 13 55 44 31 22 -17 35 -20 69 -15 22 4 47 12 54 18 10 8 13 1 13 -38 0 -36
-3 -45 -10 -34 -9 13 -11 13 -20 0 -15 -23 -13 -29 20 -62 30 -30 39 -61 20
-73 -6 -3 -10 3 -10 14 0 18 -6 21 -43 21 -37 0 -47 -5 -66 -31 -26 -34 -45
-28 -56 20 -4 19 -17 32 -42 44 -20 9 -39 14 -42 12 -15 -16 61 -468 111 -655
12 -41 24 -91 28 -110 5 -19 16 -59 24 -87 9 -29 22 -76 30 -104 8 -28 17 -53
19 -56 3 -2 17 8 33 24 23 22 27 35 25 70 -2 48 9 54 47 27 20 -14 26 -14 62
2 22 10 40 24 40 31 0 7 5 13 10 13 6 0 10 -10 10 -22 0 -13 3 -34 6 -48 4
-18 3 -21 -4 -11 -8 11 -11 9 -17 -9 -5 -15 -2 -28 9 -38 15 -15 16 -15 16 1
0 9 5 17 11 17 6 0 9 -9 6 -19 -3 -12 1 -22 9 -25 22 -9 16 -25 -11 -31 -14
-3 -36 -7 -50 -10 -14 -3 -31 -18 -40 -35 -20 -38 -39 -38 -55 0 -8 19 -22 32
-39 36 -14 3 -34 8 -43 11 -10 2 -18 -1 -18 -7 0 -17 127 -354 160 -425 15
-33 40 -87 55 -120 46 -102 69 -149 81 -165 7 -8 14 -22 15 -30 8 -31 104
-200 115 -200 6 0 19 15 29 33 14 27 15 38 6 55 -6 11 -11 28 -11 38 0 14 7
16 42 10 36 -6 46 -3 78 23 41 33 70 29 51 -7 -17 -31 -13 -60 9 -72 10 -6 23
-10 27 -9 50 8 42 -28 -11 -51 -35 -14 -46 -25 -51 -49 -9 -43 -22 -47 -54
-17 -19 18 -38 26 -64 26 -20 0 -37 -4 -37 -9 0 -14 114 -201 122 -201 4 0 15
14 24 32 14 27 15 38 5 65 -16 43 -7 55 35 47 27 -5 39 -1 65 20 34 29 49 32
67 14 17 -17 15 -31 -3 -24 -25 9 -18 -40 7 -58 26 -19 42 -21 32 -5 -4 7 1 7
15 -1 30 -15 22 -31 -27 -55 -32 -15 -42 -26 -47 -52 -8 -45 -22 -50 -54 -19
-26 25 -87 36 -104 20 -6 -7 103 -173 126 -193 11 -8 17 -3 30 25 15 31 16 38
2 64 -24 46 -20 53 26 46 36 -6 45 -3 66 19 14 14 30 25 35 25 15 0 58 -32 58
-43 0 -5 -10 -2 -22 9 -21 19 -21 19 -15 -6 4 -14 7 -28 7 -31 0 -12 50 -29
50 -18 0 8 5 7 15 -1 22 -18 19 -26 -22 -51 -46 -28 -53 -37 -53 -71 0 -35
-19 -36 -50 -3 -20 21 -29 24 -64 18 -23 -3 -43 -7 -44 -9 -2 -1 31 -46 74
-100 l77 -97 19 37 c17 33 17 39 3 58 -28 40 -20 58 26 58 33 0 45 6 66 30 13
17 28 30 31 30 14 -1 83 -72 77 -78 -4 -4 -18 6 -32 22 l-25 29 4 -29 c2 -24
10 -31 43 -42 43 -14 98 -59 89 -73 -3 -5 -15 3 -27 17 l-23 26 -36 -21 c-28
-17 -37 -29 -42 -61 -7 -45 -21 -50 -60 -19 -21 17 -33 19 -68 12 l-42 -8 79
-90 c43 -50 81 -92 83 -95 5 -6 21 21 28 49 4 14 0 34 -10 51 -24 41 -20 50
22 50 30 0 45 7 72 35 40 41 62 33 53 -20 -5 -32 -4 -34 36 -45 49 -13 53 -32
11 -56 -22 -14 -30 -26 -32 -53 -3 -42 -29 -53 -58 -26 -14 13 -28 15 -59 10
-23 -4 -41 -10 -41 -13 1 -17 159 -174 168 -168 21 13 26 75 8 95 -27 30 -20
51 17 51 25 0 41 8 64 35 39 43 65 47 57 8 -7 -38 14 -64 54 -65 18 -1 32 -4
32 -8 0 -4 9 -10 20 -13 11 -3 20 -11 20 -17 0 -10 -3 -10 -14 -1 -11 9 -22 7
-50 -10 -32 -18 -36 -26 -36 -60 0 -49 -18 -58 -57 -30 -25 18 -32 19 -65 8
-21 -6 -38 -15 -38 -18 0 -10 341 -318 395 -357 6 -4 50 -38 98 -76 49 -37 91
-66 93 -63 3 3 8 23 10 44 4 32 0 43 -24 68 -16 17 -45 39 -65 49 -31 16 -42
17 -63 8 -45 -21 -56 -16 -53 26 2 27 -4 48 -20 70 -27 38 -21 52 24 52 27 0
37 6 56 38 12 20 22 41 20 46 -1 5 5 4 13 -4 9 -7 16 -21 16 -31 0 -11 9 -28
20 -39 22 -22 66 -28 54 -7 -4 6 2 3 14 -7 12 -11 22 -16 22 -11 0 4 7 2 15
-5 8 -7 15 -17 15 -22 0 -6 -7 -5 -16 3 -13 10 -20 7 -48 -22 -29 -29 -33 -39
-29 -72 4 -28 9 -37 20 -33 8 3 25 6 39 6 16 0 28 10 40 33 9 17 21 35 26 38
5 3 3 13 -6 21 -8 9 -12 18 -9 21 9 10 36 -23 38 -47 4 -37 24 -66 45 -66 10
0 26 -3 34 -6 12 -5 15 -2 10 10 -3 9 -2 16 4 16 24 0 19 -32 -10 -65 -25 -30
-30 -41 -25 -70 7 -42 -5 -51 -44 -35 -24 10 -38 10 -70 0 -21 -7 -39 -16 -39
-20 0 -9 300 -210 350 -235 19 -10 43 -24 53 -33 21 -19 29 -12 33 32 2 27 -3
39 -27 60 -16 14 -29 30 -29 34 0 5 17 14 38 20 30 9 41 19 51 47 7 19 18 35
24 35 7 1 1 10 -13 21 l-25 21 25 -3 c18 -3 26 -11 28 -29 5 -40 33 -67 77
-73 l40 -6 -22 19 c-27 21 -29 30 -9 30 8 0 18 -9 21 -21 4 -11 12 -18 18 -16
7 2 18 -2 26 -10 12 -13 11 -14 -6 -9 -15 5 -26 -2 -47 -32 -23 -34 -25 -42
-15 -71 14 -41 7 -47 -39 -35 -31 8 -43 6 -75 -12 l-38 -21 43 -25 c64 -38
166 -88 178 -88 5 0 10 15 10 34 0 27 -7 40 -31 59 -38 29 -34 52 9 60 23 5
33 14 42 42 7 22 18 35 29 35 9 0 22 5 29 12 8 8 12 9 12 1 0 -6 -5 -13 -11
-15 -9 -3 -9 -10 0 -26 9 -17 21 -22 51 -22 21 0 41 6 44 13 5 9 7 9 12 0 3
-7 12 -9 20 -6 8 3 14 0 14 -6 0 -6 -8 -11 -17 -11 -10 -1 -29 -17 -42 -38
-20 -32 -22 -41 -12 -68 16 -45 15 -47 -32 -41 -33 5 -51 1 -75 -13 -18 -11
-32 -22 -32 -25 0 -5 207 -105 216 -105 2 0 4 18 4 39 0 33 -5 43 -30 61 -39
28 -38 38 5 56 27 11 37 22 42 45 8 42 31 48 57 16 17 -21 31 -27 59 -27 45 0
48 14 5 26 -17 5 -33 15 -36 22 -6 18 20 14 48 -8 14 -11 31 -20 37 -20 8 0 2
-20 -16 -52 -27 -48 -28 -54 -15 -84 16 -39 8 -47 -39 -39 -26 5 -42 1 -70
-18 l-37 -25 55 -26 c31 -14 59 -26 63 -26 4 0 19 -6 34 -14 15 -8 42 -17 60
-21 18 -4 38 -11 43 -15 40 -29 475 -166 488 -153 3 2 -1 20 -8 40 -9 25 -24
42 -49 55 -40 21 -39 31 4 53 21 11 30 24 35 55 8 45 23 50 51 19 16 -17 26
-20 61 -15 50 7 59 -3 38 -44 -15 -28 -14 -33 1 -59 24 -40 13 -62 -26 -54
-25 5 -37 0 -61 -23 -16 -15 -29 -31 -29 -34 0 -3 62 -21 138 -39 75 -18 155
-36 177 -42 151 -36 592 -84 805 -88 63 -1 125 -5 136 -7 32 -8 34 7 8 49 -19
29 -31 37 -54 37 -41 0 -46 17 -15 50 22 23 25 33 20 64 -9 44 11 56 50 30 26
-17 28 -17 61 1 41 22 49 16 46 -32 -2 -28 3 -43 25 -65 23 -24 25 -30 13 -38
-8 -5 -24 -10 -35 -10 -25 0 -36 -8 -58 -42 -26 -41 -22 -49 21 -43 20 2 107
7 192 10 256 9 544 43 789 94 60 12 248 59 269 66 8 3 1 15 -21 35 -25 22 -45
30 -71 30 -40 0 -43 7 -21 51 12 21 13 34 5 48 -5 11 -10 29 -10 41 0 20 4 21
41 15 34 -6 44 -3 64 15 32 30 55 20 55 -24 0 -28 6 -37 36 -55 40 -24 38 -35
-10 -55 -25 -10 -35 -22 -40 -46 -3 -18 -4 -36 -1 -39 12 -11 354 92 459 138
22 10 70 29 106 42 60 21 221 94 349 157 l53 26 -28 23 c-25 20 -36 23 -76 17
-52 -6 -54 -4 -37 44 9 26 7 35 -11 60 -28 37 -20 52 28 53 28 0 42 7 59 29
19 23 20 29 8 34 -8 3 -15 2 -15 -2 0 -4 -20 -16 -45 -27 -25 -11 -45 -23 -45
-26 0 -4 -9 -9 -19 -12 -14 -3 -18 -1 -14 9 3 8 11 14 19 14 8 0 14 4 14 9 0
5 12 12 27 16 15 3 30 10 33 15 3 5 17 11 32 15 24 6 28 2 50 -45 18 -40 29
-53 51 -57 41 -8 43 -21 8 -57 -23 -24 -31 -41 -31 -69 0 -20 2 -37 4 -37 7 0
210 113 295 165 51 30 95 55 99 55 9 1 56 40 51 43 -41 28 -78 38 -97 28 -41
-22 -55 -15 -50 27 4 29 0 43 -19 66 -28 33 -17 56 26 56 19 0 34 10 49 30 13
17 27 30 31 30 5 0 18 -16 30 -35 11 -20 28 -35 39 -35 10 0 26 -6 36 -13 16
-11 15 -15 -13 -41 -25 -24 -29 -33 -24 -65 3 -20 7 -37 9 -39 2 -3 179 112
198 129 5 4 -7 16 -28 25 -31 15 -41 16 -71 5 -46 -16 -57 -8 -49 35 5 30 2
40 -21 64 -27 28 -27 28 -7 39 12 6 29 11 40 11 13 0 26 13 36 35 9 19 21 35
25 35 11 0 36 -31 44 -52 4 -10 15 -18 26 -18 52 0 65 -24 30 -56 -17 -15 -20
-27 -16 -57 3 -21 7 -41 10 -43 5 -5 177 122 189 140 4 6 -11 16 -35 24 -36
12 -44 12 -69 -3 -38 -22 -51 -12 -43 34 5 33 3 40 -19 55 -28 17 -34 44 -13
50 6 3 24 7 40 10 15 4 27 13 27 20 0 8 9 24 19 37 l19 24 22 -38 c18 -31 27
-37 55 -37 45 0 51 -15 22 -53 -18 -24 -23 -40 -19 -65 2 -18 8 -34 12 -37 8
-5 167 126 182 149 4 6 -10 16 -33 24 -34 11 -42 11 -61 -3 -13 -8 -31 -15
-41 -15 -14 0 -17 7 -16 39 2 32 -2 43 -26 63 -32 28 -28 44 16 53 23 5 35 16
45 41 18 42 39 43 59 4 13 -26 21 -30 55 -30 46 0 51 -13 20 -53 -19 -23 -20
-31 -10 -68 l11 -42 42 39 c105 97 137 129 137 134 0 4 -17 12 -37 18 -33 10
-41 9 -65 -8 -39 -29 -48 -25 -48 19 0 33 -5 43 -30 61 -37 27 -38 48 -2 56
38 9 50 21 57 55 8 37 28 37 55 0 15 -22 28 -29 49 -29 47 2 54 -9 31 -47 -19
-31 -20 -38 -9 -76 l13 -41 50 54 c28 30 83 90 122 134 39 43 95 106 124 139
53 58 53 60 29 66 -45 13 -73 9 -95 -12 -27 -26 -44 -18 -44 21 0 23 -8 35
-35 52 -19 13 -36 30 -37 38 -2 10 -11 6 -31 -15 -15 -16 -27 -25 -27 -18 0
15 50 54 61 47 12 -7 66 23 73 41 3 9 6 25 6 36 0 26 22 24 50 -6 18 -19 34
-25 67 -25 48 0 50 -3 25 -45 -17 -27 -17 -33 -4 -67 8 -21 18 -38 21 -37 7 0
70 80 121 154 19 27 41 56 48 63 36 39 262 392 262 411 0 5 -16 11 -36 13 -30
4 -41 -1 -64 -25 -31 -34 -46 -30 -55 14 -5 23 -16 35 -41 45 -42 18 -43 39
-4 59 26 13 30 21 30 55 0 46 13 51 53 20 20 -16 34 -19 66 -14 45 7 47 4 31
-43 -9 -25 -7 -36 11 -68 21 -35 23 -36 36 -19 18 23 253 502 278 564 10 25
24 59 31 77 8 17 14 37 14 45 0 8 4 18 8 24 10 10 67 166 76 205 l6 26 -45
-10 c-34 -8 -46 -16 -56 -39 -14 -35 -34 -36 -56 0 -22 34 -33 42 -60 42 -34
0 -38 19 -9 49 23 24 26 33 20 69 -7 48 1 52 47 25 27 -16 31 -16 59 0 40 24
54 14 46 -33 -5 -32 -2 -40 24 -63 16 -15 32 -27 34 -27 10 0 73 227 65 234
-3 3 -22 0 -43 -6 -28 -9 -41 -20 -48 -40 -13 -37 -39 -36 -61 2 -13 22 -26
30 -46 30 -45 0 -56 22 -26 50 22 21 25 30 19 67 -7 48 2 53 51 31 21 -10 31
-9 55 5 42 25 50 21 50 -26 0 -35 6 -49 29 -71 l29 -28 10 34 c10 32 35 135
52 213 10 42 30 153 54 295 8 47 17 117 21 157 l6 72 -40 -16 c-30 -12 -42
-23 -46 -44 -11 -48 -30 -55 -56 -20 -18 25 -30 31 -60 31 -48 0 -53 9 -28 49
14 24 17 37 9 51 -5 10 -10 28 -10 40 0 19 4 21 43 15 34 -5 47 -3 70 15 34
27 47 19 47 -28 1 -31 6 -41 35 -59 27 -17 35 -18 39 -7 3 7 10 103 17 211 20
337 -3 792 -55 1103 -28 165 -37 215 -46 250 -5 19 -16 67 -25 105 -9 39 -21
85 -27 102 l-9 33 -30 -22 c-24 -18 -29 -29 -29 -65 0 -47 -6 -51 -50 -28 -25
13 -33 13 -64 0 -42 -18 -51 -9 -42 41 5 26 2 39 -14 56 -34 36 -21 58 33 58
14 0 28 11 39 30 22 39 34 38 59 -5 12 -19 26 -35 32 -35 7 0 22 -3 35 -6 18
-5 22 -2 22 14 0 12 -4 31 -9 44 -5 13 -17 50 -27 83 -28 98 -31 101 -61 64
-20 -24 -26 -41 -24 -70 2 -42 -3 -45 -45 -28 -21 7 -40 7 -71 -3 -41 -12 -43
-14 -43 -50 0 -20 -5 -40 -10 -43 -6 -4 -10 12 -10 39 0 25 4 46 9 46 5 0 11
19 15 42 6 38 4 45 -19 61 -36 27 -32 46 14 53 31 5 41 13 54 40 21 43 33 43
58 -1 12 -19 28 -35 37 -35 10 0 27 -3 39 -6 19 -5 21 -3 16 18 -8 38 -66 192
-75 203 -5 6 -18 -2 -33 -20 -19 -23 -23 -37 -19 -62 9 -47 -1 -55 -43 -38
-32 14 -39 14 -59 0 -41 -27 -54 -20 -54 28 0 34 -6 49 -26 68 -23 22 -24 24
-8 36 10 7 27 13 39 13 14 0 27 11 38 35 20 43 33 44 55 5 12 -21 27 -31 55
-36 21 -3 40 -4 43 -1 8 8 -83 227 -95 227 -3 -1 -16 -16 -28 -35 -17 -27 -20
-41 -13 -63 12 -44 -1 -57 -38 -38 -29 15 -33 15 -66 -5 -44 -26 -60 -18 -52
27 6 28 2 37 -24 60 -16 15 -30 31 -30 35 0 5 18 13 39 19 32 8 42 17 51 45
14 43 30 44 53 5 14 -22 26 -30 47 -30 15 0 36 -3 45 -6 15 -6 15 -4 1 29 -27
67 -91 196 -96 197 -3 0 -15 -16 -27 -35 -19 -29 -21 -38 -11 -65 15 -43 0
-57 -42 -40 -28 12 -34 11 -61 -9 -36 -27 -49 -20 -49 24 0 27 -7 39 -30 57
-16 12 -30 26 -30 31 0 5 18 16 40 24 24 10 40 23 40 33 0 9 7 25 15 36 15 18
16 18 43 -13 23 -26 36 -33 65 -33 20 0 37 4 37 9 0 9 -83 162 -105 194 -11
16 -14 15 -35 -19 -17 -31 -19 -42 -11 -61 21 -46 15 -56 -31 -50 -32 4 -48 1
-70 -14 -35 -25 -48 -18 -48 26 0 27 -6 37 -30 52 -39 23 -38 41 5 59 26 11
37 22 42 44 8 43 20 46 53 15 22 -21 35 -26 68 -23 l40 3 -56 95 c-96 161
-315 472 -384 545 -10 11 -46 54 -80 95 -34 41 -73 86 -87 100 -14 14 -62 65
-106 114 l-79 87 -13 -38 c-12 -34 -12 -42 6 -74 24 -42 20 -49 -25 -49 -30 0
-39 -5 -72 -45 -20 -23 -29 -18 -42 20 -8 26 -21 39 -46 50 -42 17 -43 29 -4
62 23 18 30 33 30 59 0 39 10 42 54 15 28 -18 34 -18 66 -5 l35 15 -45 41
c-25 23 -66 62 -92 86 l-46 45 -12 -43 c-10 -38 -9 -44 11 -66 29 -31 19 -54
-25 -54 -29 0 -38 -5 -51 -29 -8 -16 -22 -31 -32 -33 -13 -2 -8 -13 25 -51 65
-75 49 -69 -33 13 -41 41 -75 79 -75 85 0 7 3 7 8 0 4 -5 17 -19 30 -29 22
-19 22 -19 22 2 0 32 -37 65 -66 59 -38 -7 -38 9 1 52 27 29 34 45 30 63 -3
12 -1 29 4 37 7 12 15 10 43 -7 30 -19 39 -20 67 -9 17 6 30 17 29 23 -2 6
-41 44 -87 84 l-85 73 -13 -38 c-12 -35 -11 -39 12 -67 14 -16 25 -33 25 -38
0 -11 -26 -20 -56 -20 -16 0 -28 -9 -38 -29 -9 -16 -26 -31 -40 -33 -14 -3
-23 -1 -20 3 2 4 2 19 -2 33 -4 19 -16 28 -42 35 -19 6 -39 8 -44 5 -19 -12
-6 18 23 50 25 29 29 41 24 66 -8 38 13 49 49 25 22 -14 30 -15 61 -4 19 7 35
18 34 24 0 9 -158 136 -178 143 -9 3 -21 -31 -21 -62 0 -10 12 -30 27 -44 26
-24 26 -25 8 -38 -10 -8 -29 -14 -41 -14 -15 0 -29 -12 -43 -35 -15 -26 -25
-33 -38 -28 -16 6 -17 5 -3 -12 13 -16 13 -18 0 -13 -8 3 -14 14 -13 24 4 29
-18 64 -39 64 -11 0 -28 5 -40 11 -20 11 -20 11 7 39 24 25 26 33 20 69 -4 24
-12 41 -20 41 -31 0 -65 -21 -80 -50 -8 -16 -22 -30 -30 -30 -9 0 -12 -6 -9
-15 9 -22 -9 -18 -23 5 -11 16 -10 18 2 14 20 -8 19 6 -3 32 -21 26 -61 37
-79 22 -24 -20 -14 29 12 61 19 22 24 36 19 55 -3 14 -4 33 0 41 5 14 9 14 41
1 33 -14 38 -14 71 6 l36 21 -59 37 c-32 20 -79 49 -104 64 l-46 26 -7 -37
c-5 -34 -2 -41 24 -65 39 -36 38 -46 -6 -54 -28 -5 -39 -14 -49 -38 -13 -30
-62 -82 -52 -54 9 27 -25 66 -65 72 -43 7 -46 16 -18 56 17 24 18 33 9 60 -15
42 -3 54 40 39 27 -10 39 -9 67 4 19 9 34 20 34 24 0 7 -179 109 -211 121 -5
2 -9 -14 -9 -36 0 -30 6 -44 30 -65 38 -35 38 -43 -4 -57 -26 -8 -38 -20 -46
-44 -6 -19 -20 -42 -32 -52 -20 -19 -21 -19 -14 1 4 14 -2 29 -19 47 -22 24
-28 25 -66 17 -41 -9 -63 -5 -44 9 6 4 20 22 33 40 20 29 22 38 13 64 -17 48
-15 51 34 45 43 -6 105 15 105 36 0 7 -203 107 -218 107 -4 0 -6 -18 -4 -40 3
-30 11 -45 33 -61 38 -27 37 -37 -6 -55 -25 -10 -37 -22 -41 -42 -3 -15 -14
-39 -25 -52 -17 -23 -19 -23 -19 -5 0 11 -9 31 -19 44 -16 21 -24 23 -72 19
-30 -3 -48 -3 -41 -1 6 3 12 9 12 15 0 5 10 24 22 40 17 25 19 34 10 49 -7 10
-12 28 -12 40 0 19 4 21 43 15 35 -5 47 -2 72 18 17 13 28 26 25 28 -8 7 -150
65 -205 84 -27 10 -54 21 -60 24 -19 14 -205 73 -211 68 -3 -3 0 -24 5 -46 8
-30 19 -43 41 -52 39 -16 38 -34 -4 -54 -27 -13 -35 -23 -40 -55 -7 -43 -36
-79 -36 -44 0 32 -34 56 -70 49 -16 -3 -43 -9 -60 -12 -19 -4 -30 -2 -30 5 0
6 8 11 18 11 13 0 23 13 32 40 12 35 11 45 -3 75 -18 38 -17 39 43 36 27 -2
41 4 64 28 22 22 25 32 15 35 -8 2 -48 14 -89 26 -41 12 -88 26 -103 32 -36
14 -40 8 -28 -40 9 -31 18 -42 41 -51 38 -13 38 -36 0 -56 -21 -11 -30 -23
-30 -39 0 -32 -10 -56 -22 -56 -6 0 -23 11 -39 24 -26 22 -33 24 -62 14 -17
-6 -38 -15 -45 -21 -9 -7 -16 -7 -24 1 -9 9 -7 12 10 12 15 0 22 6 22 20 0 10
5 30 11 44 10 20 9 30 -5 51 -25 38 -14 59 27 51 28 -5 38 -2 62 24 l28 29
-26 10 c-15 6 -68 20 -119 31 -51 11 -109 25 -128 30 -19 6 -62 14 -95 20 -33
5 -77 12 -97 16 -43 7 -44 4 -20 -46 10 -21 26 -36 39 -38 12 -2 27 -10 34
-18 11 -13 8 -20 -19 -41 -23 -18 -32 -33 -32 -54 0 -44 -17 -69 -45 -69 -31
0 -33 17 -3 22 22 3 22 3 -5 21 -17 11 -36 15 -52 11 -29 -7 -33 -21 -7 -27 9
-3 0 -5 -22 -6 -31 -1 -36 2 -27 12 6 8 8 16 5 19 -3 4 -1 22 4 40 8 28 6 39
-9 59 -10 13 -19 30 -19 36 0 15 44 28 59 18 13 -7 74 56 63 66 -16 14 -242
37 -242 24 0 -16 36 -75 46 -75 7 0 25 -5 40 -10 l27 -11 -30 -32 c-21 -22
-32 -46 -36 -74 -5 -39 -3 -43 16 -43 15 0 18 -3 10 -11 -12 -12 -45 -9 -43 5
3 18 -59 48 -85 42 -31 -8 -32 -23 -2 -29 12 -2 -5 -5 -37 -6 -33 0 -56 2 -52
7 4 4 12 8 17 8 5 1 12 2 17 3 4 1 8 22 9 48 2 33 -4 54 -18 75 -23 31 -20 34
43 47 28 6 69 53 57 66 -7 6 -232 25 -238 19 -3 -2 4 -21 15 -41 15 -28 28
-39 52 -44 47 -10 49 -16 15 -52 -25 -27 -30 -38 -26 -68 6 -45 -10 -57 -39
-30 -25 24 -55 26 -82 6 -19 -14 -17 -15 20 -15 26 0 34 -3 25 -9 -18 -11
-497 -12 -525 -1 -17 7 -12 9 24 10 42 1 44 2 26 15 -28 21 -52 19 -70 -6 -24
-34 -48 -18 -45 31 3 32 -2 45 -26 70 -32 33 -30 39 17 49 24 5 37 16 52 44
11 20 23 37 27 37 4 0 16 -16 28 -35 16 -28 27 -35 51 -35 40 0 49 -24 21 -54
-18 -19 -20 -30 -15 -69 l7 -47 46 0 46 0 0 49 c0 38 -5 55 -24 74 -28 30 -21
47 19 47 23 0 35 8 54 38 24 37 25 53 3 50 -7 0 -91 -4 -187 -8z m-541 -99
c17 -23 28 -29 56 -28 47 1 53 -8 25 -45 -20 -28 -22 -35 -11 -64 15 -42 -2
-74 -39 -73 l-25 0 25 11 25 10 -28 10 c-33 12 -80 -12 -71 -37 4 -10 0 -15
-15 -15 -18 0 -21 6 -21 48 0 42 -4 50 -36 76 -35 27 -36 30 -19 43 11 7 27
13 38 13 12 0 24 13 35 40 20 47 34 50 61 11z m-259 -46 c17 -18 34 -25 62
-25 42 0 51 -19 22 -51 -15 -16 -15 -24 -3 -64 10 -32 19 -45 32 -45 10 0 16
-4 12 -9 -3 -6 -26 -4 -57 5 -42 13 -55 13 -75 3 -13 -7 -21 -19 -19 -26 6
-15 -7 -25 -26 -18 -8 3 -15 23 -17 47 -2 34 -9 48 -38 73 l-37 31 42 17 c23
9 42 21 42 26 0 19 20 61 28 61 5 0 19 -11 32 -25z m2085 -8 c5 -28 14 -37 48
-52 l41 -18 -37 -32 c-27 -23 -37 -40 -37 -61 0 -16 -4 -34 -8 -40 -10 -15
-40 -25 -47 -14 -3 4 1 10 7 13 9 3 7 10 -7 21 -15 11 -32 14 -62 10 -47 -7
-52 1 -33 51 8 22 6 34 -10 60 -24 38 -19 45 31 45 29 0 42 6 56 25 26 36 51
32 58 -8z m-178 -188 c-14 -8 -22 -8 -30 0 -8 8 -3 11 19 11 25 -1 27 -2 11
-11z m-2661 -20 c15 -16 27 -20 55 -16 54 7 63 -3 43 -45 -16 -34 -16 -36 11
-77 14 -24 24 -45 22 -48 -3 -2 -24 1 -47 8 -40 12 -44 12 -61 -10 -11 -13
-19 -29 -19 -36 0 -7 -10 -15 -22 -18 -25 -7 -38 0 -21 11 8 5 9 13 3 22 -6 8
-10 25 -10 37 0 15 -11 27 -35 39 -42 20 -45 39 -6 58 22 12 30 25 35 56 7 45
23 51 52 19z m804 11 c0 -5 -10 -10 -22 -10 -19 0 -20 2 -8 10 19 13 30 13 30
0z m1945 0 c3 -5 -1 -10 -9 -10 -9 0 -16 5 -16 10 0 6 4 10 9 10 6 0 13 -4 16
-10z m841 -30 c5 -31 13 -44 35 -56 39 -20 36 -41 -6 -61 -23 -11 -35 -24 -35
-37 0 -27 -9 -40 -38 -55 -22 -12 -23 -11 -18 6 10 32 -25 56 -68 48 -31 -6
-36 -5 -36 12 0 10 7 29 16 41 14 21 14 26 0 62 -17 43 -17 43 41 40 20 -1 43
7 59 19 37 29 43 27 50 -19z m-3036 -30 c0 -5 -12 -10 -27 -9 -25 0 -26 1 -8
9 27 12 35 12 35 0z m2447 -6 c-3 -3 -12 -4 -19 -1 -8 3 -5 6 6 6 11 1 17 -2
13 -5z m43 -14 c0 -5 -7 -10 -15 -10 -8 0 -15 5 -15 10 0 6 7 10 15 10 8 0 15
-4 15 -10z m49 -21 c-15 -9 -32 -2 -24 11 3 5 13 6 21 3 12 -4 13 -8 3 -14z
m-2662 5 c-3 -3 -12 -4 -19 -1 -8 3 -5 6 6 6 11 1 17 -2 13 -5z m-107 -28 c0
-11 -19 -15 -25 -6 -3 5 1 10 9 10 9 0 16 -2 16 -4z m2900 -6 c0 -5 -2 -10 -4
-10 -3 0 -8 5 -11 10 -3 6 -1 10 4 10 6 0 11 -4 11 -10z m-3043 -46 c-3 -3
-12 -4 -19 -1 -8 3 -5 6 6 6 11 1 17 -2 13 -5z m3190 0 c-3 -3 -12 -4 -19 -1
-8 3 -5 6 6 6 11 1 17 -2 13 -5z m43 -14 c0 -5 -5 -10 -11 -10 -5 0 -7 5 -4
10 3 6 8 10 11 10 2 0 4 -4 4 -10z m75 -30 c3 -5 1 -10 -4 -10 -6 0 -11 5 -11
10 0 6 2 10 4 10 3 0 8 -4 11 -10z m85 -30 c0 -5 -4 -10 -10 -10 -5 0 -10 5
-10 10 0 6 5 10 10 10 6 0 10 -4 10 -10z m30 -20 c0 -5 -4 -10 -10 -10 -5 0
-10 5 -10 10 0 6 5 10 10 10 6 0 10 -4 10 -10z m80 -24 c0 -3 -4 -8 -10 -11
-5 -3 -10 -1 -10 4 0 6 5 11 10 11 6 0 10 -2 10 -4z m-3863 -22 c-3 -3 -12 -4
-19 -1 -8 3 -5 6 6 6 11 1 17 -2 13 -5z m3998 -44 c3 -5 1 -10 -4 -10 -6 0
-11 5 -11 10 0 6 2 10 4 10 3 0 8 -4 11 -10z m95 -50 c0 -5 -4 -10 -10 -10 -5
0 -10 5 -10 10 0 6 5 10 10 10 6 0 10 -4 10 -10z m199 -113 c0 -9 -2 -9 -6 1
-2 6 -13 12 -23 12 -10 0 -20 7 -24 15 -5 14 -2 13 24 0 17 -9 30 -21 29 -28z
m49 -25 c6 -18 -15 -14 -22 4 -4 10 -1 14 6 12 6 -2 14 -10 16 -16z m42 -16
c0 -11 -19 -15 -25 -6 -3 5 1 10 9 10 9 0 16 -2 16 -4z m100 -67 c0 -4 -13 -1
-30 7 -16 9 -30 20 -30 25 0 6 14 2 30 -8 17 -9 30 -20 30 -24z m-5240 -109
c0 -5 -4 -10 -10 -10 -5 0 -10 5 -10 10 0 6 5 10 10 10 6 0 10 -4 10 -10z
m5436 -17 c-8 -8 -36 5 -36 17 0 7 6 7 21 0 11 -7 18 -14 15 -17z m-5526 -43
c0 -5 -4 -10 -10 -10 -5 0 -10 5 -10 10 0 6 5 10 10 10 6 0 10 -4 10 -10z
m5609 -9 c7 -5 9 -11 5 -14 -5 -3 -15 1 -22 9 -14 16 -5 18 17 5z m-5719 -70
c0 -5 -7 -12 -16 -15 -24 -9 -28 -7 -14 9 14 17 30 20 30 6z m5850 -32 c0 -14
-17 -10 -23 5 -4 10 -1 13 9 9 7 -3 14 -9 14 -14z m-2172 -54 c30 -9 56 -24
62 -35 20 -38 57 -53 142 -56 73 -3 84 -6 112 -32 36 -33 61 -44 170 -71 44
-11 91 -29 105 -40 46 -37 79 -51 156 -66 51 -10 94 -26 134 -50 63 -39 118
-59 196 -69 46 -7 56 -13 111 -74 33 -37 73 -89 88 -117 15 -27 42 -64 60 -80
19 -17 47 -58 64 -90 16 -33 42 -70 56 -82 14 -12 28 -35 32 -50 17 -79 37
-124 64 -143 39 -28 47 -56 22 -83 -51 -57 -49 -94 8 -117 24 -10 33 -22 41
-56 8 -31 22 -53 48 -73 30 -24 39 -40 50 -91 10 -45 20 -66 38 -77 33 -22 53
-75 53 -142 0 -55 2 -58 48 -102 28 -27 60 -72 80 -113 18 -37 51 -85 73 -105
21 -21 39 -46 39 -55 0 -9 20 -38 44 -64 24 -26 56 -72 71 -102 15 -30 42 -67
60 -83 51 -42 58 -76 48 -240 -4 -78 -7 -169 -5 -202 4 -88 -13 -190 -38 -225
l-22 -31 -31 18 c-17 10 -38 32 -47 48 -9 17 -36 41 -59 54 -27 15 -48 36 -57
56 -9 24 -22 35 -43 40 -29 6 -75 47 -76 68 -1 7 -8 35 -17 64 -11 35 -15 70
-11 106 7 73 -12 149 -56 223 l-37 62 -24 -18 c-14 -9 -41 -22 -60 -28 -43
-14 -299 -15 -570 -3 -126 5 -226 5 -261 -1 -45 -8 -65 -6 -111 9 l-56 19 -83
-40 c-70 -35 -93 -52 -144 -113 -117 -139 -115 -135 -115 -208 0 -69 -15 -105
-50 -121 -16 -8 -138 -14 -340 -18 -361 -7 -502 -17 -545 -40 -48 -24 -209
-32 -276 -13 -52 15 -58 15 -119 -4 -36 -11 -94 -21 -129 -22 l-63 -2 -49 55
c-26 30 -51 66 -54 79 -12 48 -90 155 -126 173 -86 41 -188 86 -232 103 l-49
17 -34 -33 c-33 -32 -36 -33 -152 -40 -64 -4 -171 -12 -237 -18 -294 -28 -369
-32 -511 -29 -177 3 -179 3 -214 -92 -20 -53 -21 -66 -11 -122 14 -83 6 -243
-14 -274 -8 -13 -13 -24 -9 -24 16 0 -45 -38 -78 -49 -41 -14 -54 -26 -38 -36
6 -4 7 -11 4 -17 -4 -6 -3 -8 3 -5 5 3 27 -11 47 -32 l38 -38 -44 -7 c-24 -3
-61 -3 -83 1 -94 15 -161 5 -195 -29 -27 -27 -113 -58 -160 -58 -15 0 -35 -10
-46 -21 -10 -12 -44 -33 -74 -48 -33 -16 -63 -40 -78 -61 -35 -52 -48 -56 -67
-19 -14 27 -15 44 -5 133 10 94 21 151 37 201 4 11 6 118 4 237 -1 158 2 237
12 290 8 40 18 90 21 110 4 23 22 55 44 81 32 37 42 59 61 147 22 95 28 107
71 155 44 48 48 58 54 116 14 135 28 192 56 223 16 17 49 54 74 82 26 28 53
72 62 98 9 25 28 56 42 68 31 26 92 122 92 143 0 19 -32 35 -69 35 -56 0 -70
34 -52 129 6 31 20 54 48 82 31 29 44 53 57 102 13 47 27 74 52 98 24 24 40
53 55 101 11 38 33 83 48 101 16 17 40 56 55 85 22 43 35 57 70 72 24 10 59
34 78 53 25 25 50 38 87 46 66 14 104 34 124 65 16 24 38 33 125 56 24 6 61
27 82 46 24 22 63 43 101 54 41 13 75 31 98 54 20 19 69 49 110 65 40 17 89
45 108 62 29 25 42 30 67 25 37 -8 94 -45 101 -68 9 -25 75 -52 120 -48 56 5
125 5 400 1 132 -1 305 2 385 8 80 6 199 14 265 17 118 6 148 14 225 59 14 8
42 15 63 15 50 0 73 13 93 53 18 35 43 67 54 67 3 0 30 -7 58 -15z m2262 -28
c0 -6 -9 -2 -20 8 -11 10 -20 23 -20 28 0 6 9 2 20 -8 11 -10 20 -23 20 -28z
m80 -57 c13 -11 20 -23 17 -27 -6 -5 -47 33 -47 44 0 7 8 2 30 -17z m529 -264
c27 -20 37 -23 56 -14 41 18 55 5 43 -41 -8 -32 -7 -44 6 -63 25 -36 20 -48
-20 -48 -26 0 -46 -8 -71 -30 -37 -33 -48 -36 -59 -18 -4 7 -3 8 5 4 9 -6 10
0 5 21 -8 33 -19 45 -56 61 -33 14 -36 3 -8 -23 11 -10 20 -22 20 -27 0 -4
-13 4 -29 18 -28 24 -29 28 -15 49 8 12 25 28 39 35 18 10 25 22 25 45 0 17 5
36 12 43 15 15 8 16 47 -12z m-214 -36 c10 -11 13 -20 7 -20 -6 0 -16 9 -22
20 -6 11 -9 20 -7 20 2 0 12 -9 22 -20z m61 -67 c-7 -7 -26 7 -26 19 0 6 6 6
15 -2 9 -7 13 -15 11 -17z m325 -94 c17 -17 29 -20 59 -15 20 3 40 3 43 0 3
-4 0 -22 -8 -42 -14 -32 -13 -37 5 -67 24 -38 19 -45 -33 -45 -30 0 -44 -6
-59 -25 -27 -35 -46 -31 -54 10 -7 40 -24 56 -57 59 -32 1 -24 31 13 53 20 12
30 27 34 55 7 44 25 49 57 17z m-159 -79 c14 -16 23 -30 20 -30 -9 1 -62 47
-62 55 0 13 18 3 42 -25z m83 -109 c-6 -5 -25 10 -25 20 0 5 6 4 14 -3 8 -7
12 -15 11 -17z m-7665 -12 c0 -32 18 -57 52 -75 25 -13 32 -13 39 -3 4 8 11
10 16 5 4 -4 0 -12 -10 -17 -9 -6 -17 -16 -17 -22 0 -22 -22 -38 -36 -26 -7 6
-18 8 -24 4 -13 -8 -13 -35 0 -35 16 0 12 -27 -5 -34 -8 -3 -15 -12 -15 -19 0
-8 -8 -21 -17 -28 -15 -12 -16 -12 -10 5 6 14 0 27 -19 47 -24 25 -32 28 -70
22 -50 -7 -54 2 -27 48 16 27 16 31 0 58 -25 43 -22 51 26 51 31 0 49 6 62 20
24 27 55 26 55 -1z m7902 -4 c21 -18 36 -23 54 -19 13 3 31 4 39 0 13 -5 13
-10 0 -44 -14 -34 -14 -41 0 -68 22 -43 19 -47 -25 -41 -34 4 -45 1 -67 -19
-14 -13 -30 -24 -34 -24 -12 0 -29 35 -29 60 0 21 -43 46 -61 34 -11 -7 -49
24 -49 39 0 6 11 0 25 -13 21 -20 25 -21 25 -6 0 9 13 25 30 34 16 9 30 22 30
29 0 18 19 63 26 63 3 0 19 -11 36 -25z m-179 -49 c4 -10 1 -13 -9 -9 -15 6
-19 23 -5 23 5 0 11 -7 14 -14z m87 -116 c0 -5 -5 -10 -11 -10 -5 0 -7 5 -4
10 3 6 8 10 11 10 2 0 4 -4 4 -10z m240 -45 c18 -19 34 -25 67 -25 24 0 43 -2
43 -5 0 -4 -7 -20 -16 -37 -13 -25 -14 -38 -5 -68 16 -53 16 -53 -32 -46 -36
6 -46 3 -62 -14 -19 -21 -60 -26 -85 -10 -8 5 -11 13 -6 17 5 4 11 2 13 -4 9
-24 23 -13 23 16 0 22 -8 36 -32 52 -22 16 -33 19 -36 11 -2 -7 -8 -10 -13 -7
-10 7 24 44 64 68 17 11 27 26 27 41 0 43 17 46 50 11z m-194 -22 c-7 -7 -26
7 -26 19 0 6 6 6 15 -2 9 -7 13 -15 11 -17z m29 -51 c-8 -8 -25 10 -25 26 0
13 2 13 14 -4 8 -10 13 -21 11 -22z m-8050 -191 c-3 -6 -11 -11 -17 -11 -6 0
-6 6 2 15 14 17 26 13 15 -4z m-55 -101 c0 -5 -2 -10 -4 -10 -2 0 -12 -3 -22
-7 -16 -6 -17 -5 -4 10 17 19 30 22 30 7z m8290 -5 c7 -8 8 -15 2 -15 -5 0
-15 7 -22 15 -7 8 -8 15 -2 15 5 0 15 -7 22 -15z m40 -71 c0 -4 7 -16 17 -26
15 -17 15 -18 0 -18 -10 0 -17 6 -17 14 0 8 -4 16 -9 18 -4 2 -12 14 -16 28
-7 22 -6 23 9 8 9 -9 16 -20 16 -24z m-6570 -22 c0 -10 -6 -26 -13 -36 -12
-16 -14 -16 -25 9 -14 31 -8 45 19 45 12 0 19 -7 19 -18z m6630 -72 c0 -5 -5
-10 -11 -10 -5 0 -7 5 -4 10 3 6 8 10 11 10 2 0 4 -4 4 -10z m15 -30 c3 -5 1
-10 -4 -10 -6 0 -11 5 -11 10 0 6 2 10 4 10 3 0 8 -4 11 -10z m44 -102 c0 -8
-3 -7 -6 2 -3 8 -14 27 -24 41 -10 14 -16 29 -12 32 7 8 43 -57 42 -75z
m-8760 -16 c20 -44 84 -65 106 -36 12 16 14 17 15 3 0 -9 -7 -19 -15 -23 -8
-3 -15 -17 -15 -31 0 -22 -3 -25 -24 -19 -30 7 -43 -21 -21 -46 11 -12 13 -20
6 -25 -6 -3 -11 -15 -11 -26 0 -19 -15 -27 -22 -11 -1 4 -17 17 -33 29 -28 19
-33 20 -64 7 -44 -18 -56 -7 -43 38 8 28 6 39 -9 59 -31 41 -20 59 37 59 16 0
28 9 39 31 19 36 35 34 54 -9z m8781 -12 c0 -5 -4 -10 -10 -10 -5 0 -10 5 -10
10 0 6 5 10 10 10 6 0 10 -4 10 -10z m30 -60 c0 -5 -5 -10 -11 -10 -5 0 -7 5
-4 10 3 6 8 10 11 10 2 0 4 -4 4 -10z m50 -110 c0 -5 -4 -10 -10 -10 -5 0 -10
5 -10 10 0 6 5 10 10 10 6 0 10 -4 10 -10z m44 -105 c3 -8 1 -15 -4 -15 -6 0
-10 7 -10 15 0 8 2 15 4 15 2 0 6 -7 10 -15z m16 -35 c0 -5 -5 -10 -11 -10 -5
0 -7 5 -4 10 3 6 8 10 11 10 2 0 4 -4 4 -10z m20 -50 c0 -5 -4 -10 -10 -10 -5
0 -10 5 -10 10 0 6 5 10 10 10 6 0 10 -4 10 -10z m-9010 -121 c0 -11 -4 -18
-10 -14 -5 3 -7 12 -3 20 7 21 13 19 13 -6z m9047 -11 c-3 -8 -6 -5 -6 6 -1
11 2 17 5 13 3 -3 4 -12 1 -19z m19 -45 c-10 -10 -19 5 -10 18 6 11 8 11 12 0
2 -7 1 -15 -2 -18z m11 -45 c-3 -8 -6 -5 -6 6 -1 11 2 17 5 13 3 -3 4 -12 1
-19z m23 -44 c0 -8 -5 -12 -10 -9 -6 4 -8 11 -5 16 9 14 15 11 15 -7z m30
-149 c0 -8 -4 -15 -10 -15 -5 0 -7 7 -4 15 4 8 8 15 10 15 2 0 4 -7 4 -15z
m20 -56 c0 -5 -4 -9 -10 -9 -5 0 -10 7 -10 16 0 8 5 12 10 9 6 -3 10 -10 10
-16z m-9260 -10 c0 -11 -4 -18 -10 -14 -5 3 -7 12 -3 20 7 21 13 19 13 -6z
m9267 -51 c-3 -7 -5 -2 -5 12 0 14 2 19 5 13 2 -7 2 -19 0 -25z m-9424 -68
c15 -25 25 -30 56 -30 38 0 61 -14 61 -37 0 -7 -8 -13 -19 -13 -28 0 -43 -24
-35 -56 l7 -28 10 25 c9 21 11 22 14 5 3 -10 0 -23 -6 -29 -6 -6 -12 -27 -12
-46 -1 -24 -3 -28 -6 -13 -3 14 -17 28 -40 37 -33 14 -38 14 -69 -6 -42 -25
-58 -17 -51 26 4 27 0 38 -24 61 -35 33 -33 47 7 54 21 4 34 15 47 43 21 45
37 47 60 7z m9642 -7 c14 -26 30 -39 53 -45 17 -5 32 -12 32 -16 0 -5 -13 -21
-30 -37 -23 -22 -30 -38 -30 -67 0 -43 -4 -45 -43 -19 -23 15 -34 16 -67 8
-22 -6 -42 -8 -46 -5 -3 4 -1 23 6 43 11 33 10 39 -10 60 -30 32 -20 55 24 55
28 0 38 6 53 30 23 39 34 38 58 -7z m-9519 -10 c-11 -11 -17 4 -9 23 7 18 8
18 11 1 2 -10 1 -21 -2 -24z m9334 5 c0 -5 -7 -8 -15 -8 -15 0 -20 21 -8 33 7
7 23 -11 23 -25z m16 -65 c-11 -11 -19 6 -11 24 8 17 8 17 12 0 3 -10 2 -21
-1 -24z m24 -75 c0 -5 -4 -8 -10 -8 -5 0 -10 10 -10 23 0 18 2 19 10 7 5 -8
10 -18 10 -22z m10 -69 c0 -11 -4 -18 -10 -14 -5 3 -7 12 -3 20 7 21 13 19 13
-6z m182 -35 c9 -27 22 -40 50 -51 21 -8 38 -19 38 -24 0 -5 -13 -18 -30 -31
-24 -17 -30 -29 -30 -60 0 -31 -4 -38 -19 -38 -10 0 -25 7 -32 16 -10 13 -24
15 -62 10 l-49 -7 7 46 c5 37 3 51 -10 66 -25 27 -12 49 29 49 27 0 39 7 56
30 28 39 36 38 52 -6z m-162 -54 c0 -11 -4 -20 -10 -20 -5 0 -10 9 -10 20 0
11 5 20 10 20 6 0 10 -9 10 -20z m7 -107 c-3 -10 -5 -2 -5 17 0 19 2 27 5 18
2 -10 2 -26 0 -35z m-5613 -14 c-27 -11 -152 -11 -158 0 -9 14 114 29 148 17
27 -8 28 -10 10 -17z m-3949 -99 c37 0 44 3 48 23 3 19 5 20 11 5 5 -12 -2
-32 -23 -64 -22 -32 -30 -52 -25 -67 6 -20 7 -20 20 -2 13 17 14 17 14 -12 0
-36 -22 -48 -70 -38 -23 5 -37 1 -64 -20 -37 -28 -46 -22 -46 35 0 21 -8 33
-30 47 -39 23 -38 39 4 57 23 9 36 23 40 42 13 51 25 57 53 24 20 -25 32 -30
68 -30z m9758 11 c6 -24 17 -36 42 -47 43 -18 44 -34 5 -57 -24 -15 -30 -25
-30 -52 0 -44 -15 -52 -51 -26 -23 17 -37 20 -69 15 -36 -6 -40 -5 -40 15 0
12 5 30 12 40 9 15 7 24 -11 50 -28 39 -20 52 29 49 32 -1 43 3 61 26 26 33
40 30 52 -13z m-173 -7 c0 -13 -4 -24 -10 -24 -5 0 -10 14 -10 31 0 17 4 28
10 24 6 -3 10 -17 10 -31z m10 -178 c-7 -7 -10 9 -9 45 l1 54 9 -45 c5 -28 5
-48 -1 -54z m-9550 4 c0 -5 -4 -10 -10 -10 -5 0 -10 5 -10 10 0 6 5 10 10 10
6 0 10 -4 10 -10z m9736 -76 c5 -27 14 -39 40 -52 42 -19 43 -37 4 -57 -23
-12 -31 -24 -36 -55 -8 -47 -16 -49 -55 -16 -25 21 -34 23 -61 15 -43 -12 -54
1 -34 40 15 29 15 33 -4 70 -19 39 -19 40 -1 46 11 3 30 3 43 0 17 -4 30 1 48
19 32 35 48 33 56 -10z m-166 -131 c0 -61 -3 -83 -10 -73 -16 25 -11 160 6
160 2 0 4 -39 4 -87z m-6870 47 c0 -5 -4 -10 -10 -10 -5 0 -10 5 -10 10 0 6 5
10 10 10 6 0 10 -4 10 -10z m-2718 -142 c-9 -9 -12 -7 -12 12 0 19 3 21 12 12
9 -9 9 -15 0 -24z m9768 -36 c4 -23 14 -38 38 -52 40 -24 40 -35 2 -52 -24
-10 -33 -23 -42 -55 -6 -24 -13 -43 -16 -43 -3 0 -20 11 -38 25 -28 21 -41 25
-69 19 -40 -7 -42 -1 -23 53 10 27 10 38 0 53 -23 38 -15 50 31 50 31 0 49 6
62 20 26 29 49 21 55 -18z m-7239 -25 c2 -27 -3 -72 -13 -96 -5 -14 -9 -50 -9
-80 0 -29 -4 -63 -8 -74 -5 -13 -11 32 -15 114 -8 151 -4 174 25 158 10 -5 19
-15 20 -22z m-2521 -52 c0 -13 -4 -27 -10 -30 -6 -4 -10 8 -10 30 0 22 4 34
10 30 6 -3 10 -17 10 -30z m9580 -169 c0 -41 -17 -22 -25 29 -6 37 -5 39 9 21
9 -11 16 -33 16 -50z m175 -14 c4 -27 14 -42 35 -54 38 -22 38 -32 -4 -56 -23
-13 -36 -31 -41 -51 -9 -43 -21 -46 -50 -17 -19 19 -36 26 -65 26 -49 0 -54 8
-29 49 18 29 18 34 4 61 -24 47 -20 53 29 47 35 -5 47 -3 61 13 29 32 52 25
60 -18z m-175 -74 c0 -38 -3 -49 -10 -38 -13 20 -13 90 0 90 6 0 10 -24 10
-52z m-18 -214 l-10 -49 -1 60 c-1 41 2 56 9 49 8 -8 8 -27 2 -60z m-12 -124
c0 -16 -4 -30 -10 -30 -5 0 -10 14 -10 30 0 17 5 30 10 30 6 0 10 -13 10 -30z
m-1755 -80 c28 -54 56 -72 137 -84 67 -10 83 -32 85 -125 3 -97 18 -159 47
-195 20 -26 28 -29 76 -27 73 1 90 -15 90 -87 0 -54 -18 -92 -43 -92 -6 0 -27
19 -48 41 -23 25 -44 39 -52 36 -36 -14 -64 -163 -52 -273 l7 -68 106 -103
c82 -79 117 -106 154 -119 26 -8 48 -18 48 -21 0 -16 -53 -44 -102 -55 -56
-11 -58 -13 -79 -62 -30 -70 -34 -126 -19 -292 7 -79 9 -168 6 -198 -8 -58
-42 -121 -66 -121 -25 0 -58 63 -65 123 -20 168 -65 423 -80 446 -21 32 -65
47 -123 40 -73 -9 -95 -21 -154 -84 -31 -32 -74 -68 -96 -79 -22 -11 -50 -34
-62 -51 -12 -17 -39 -39 -60 -50 -21 -11 -47 -34 -57 -51 -10 -17 -35 -40 -55
-50 -21 -11 -48 -33 -60 -50 -13 -17 -40 -40 -60 -51 -36 -21 -68 -69 -68
-102 0 -9 -19 -67 -43 -129 -24 -61 -51 -132 -60 -157 -29 -77 -27 -77 -105
-30 -39 23 -74 50 -78 59 -4 9 -14 36 -23 61 -12 35 -25 50 -54 65 -22 11 -51
38 -65 59 -30 43 -90 68 -195 81 -31 4 -61 12 -66 19 -5 6 -12 52 -15 101 -11
141 -10 139 -82 184 -35 22 -64 44 -64 48 0 13 65 53 87 53 48 0 82 14 120 48
22 21 63 45 91 55 27 9 72 35 98 57 27 22 67 49 89 59 22 11 53 33 70 50 20
22 52 39 98 53 46 13 84 33 113 59 25 22 53 39 63 39 39 0 122 32 160 63 22
17 59 43 82 57 64 38 213 189 243 245 15 28 40 68 57 90 29 40 29 41 15 88 -8
26 -28 63 -44 81 -31 35 -52 106 -52 172 0 51 27 102 69 129 20 12 52 39 70
59 19 20 36 36 38 36 1 0 14 -22 28 -50z m-7884 -1 c26 -18 34 -19 64 -9 43
14 65 1 64 -39 0 -14 -3 -20 -6 -13 -8 20 -23 14 -23 -11 0 -28 18 -47 37 -40
11 4 14 -1 11 -23 -3 -27 -5 -29 -47 -26 -38 3 -46 0 -70 -29 -31 -36 -46 -33
-56 12 -5 23 -14 31 -36 36 -39 8 -59 32 -37 44 33 19 48 41 48 73 0 51 9 55
51 25z m9797 -25 c2 -31 9 -44 32 -59 40 -27 38 -40 -9 -53 -30 -10 -40 -18
-47 -44 -13 -43 -35 -46 -57 -8 -15 25 -24 30 -58 30 -43 0 -49 12 -23 48 11
16 13 34 8 67 -7 49 -4 51 44 34 27 -9 35 -8 58 10 36 28 48 22 52 -25z m-181
-31 c-3 -10 -5 -2 -5 17 0 19 2 27 5 18 2 -10 2 -26 0 -35z m-7 -79 c0 -14 -4
-23 -10 -19 -5 3 -10 15 -10 26 0 10 5 19 10 19 6 0 10 -12 10 -26z m-7321
-54 c17 -34 32 -68 34 -78 1 -9 5 -21 9 -27 3 -5 9 -25 13 -42 5 -27 11 -33
33 -33 15 0 66 -12 114 -27 100 -31 108 -42 108 -143 0 -60 4 -69 111 -228 16
-23 29 -47 29 -52 0 -6 5 -10 10 -10 6 0 18 -8 28 -18 11 -11 46 -25 78 -33
64 -15 72 -27 54 -73 -8 -21 -13 -26 -23 -18 -7 6 -32 15 -55 20 -33 8 -46 7
-57 -4 -27 -27 -28 -54 -4 -80 12 -13 24 -22 27 -20 2 3 17 0 33 -6 19 -7 31
-19 35 -36 11 -56 21 -61 169 -101 27 -7 46 -20 57 -39 21 -35 100 -58 223
-66 87 -5 145 -21 145 -40 0 -32 -28 -47 -108 -60 -45 -7 -86 -14 -90 -16 -4
-1 -13 -5 -21 -8 -20 -8 -135 24 -206 57 -33 15 -87 34 -120 41 -33 7 -62 15
-65 19 -3 4 -18 17 -34 29 -40 31 -107 29 -182 -4 -107 -47 -104 -44 -104 -84
0 -51 16 -60 90 -58 l62 3 33 -50 c19 -27 53 -70 76 -95 52 -55 62 -96 24
-106 -24 -6 -98 1 -137 12 -10 3 -18 14 -18 24 0 66 -149 100 -292 66 -31 -8
-60 -16 -66 -19 -22 -14 -35 -178 -30 -393 5 -208 -1 -274 -23 -274 -25 0
-119 75 -130 103 -6 19 -13 110 -15 222 -4 199 -14 254 -53 289 -17 16 -21 16
-59 -4 -23 -12 -51 -20 -64 -18 -20 3 -24 11 -32 62 l-10 59 33 26 c18 14 57
50 86 79 48 48 54 59 69 130 14 67 15 92 5 172 -11 97 -33 170 -51 170 -6 0
-26 -13 -45 -30 -36 -32 -73 -39 -92 -16 -7 8 -11 37 -9 68 3 52 4 53 51 79
73 39 80 55 78 173 -1 55 -3 111 -3 123 -1 37 44 112 94 159 26 24 51 44 57
44 5 0 13 28 17 63 9 73 5 59 35 125 12 28 28 52 34 52 7 0 26 -27 44 -60z
m-2139 -97 c-9 -39 -8 -48 6 -64 9 -10 19 -17 23 -16 7 2 11 -7 11 -28 0 -11
-11 -15 -39 -15 -34 0 -44 -5 -67 -35 -14 -19 -30 -35 -35 -35 -4 0 -13 16
-20 35 -10 28 -21 38 -51 47 -44 13 -48 31 -13 54 20 13 25 25 25 55 0 46 21
60 49 35 21 -19 34 -20 78 -4 25 9 33 18 34 38 2 25 2 25 6 1 3 -13 0 -44 -7
-68z m9440 60 c-1 -24 -2 -26 -11 -10 -5 9 -7 22 -4 27 10 17 15 11 15 -17z
m166 -55 c1 -27 9 -43 30 -62 28 -25 29 -26 10 -41 -11 -8 -28 -15 -38 -15
-12 0 -24 -13 -33 -34 -21 -49 -29 -50 -59 -11 -22 28 -34 35 -62 35 -39 0
-42 10 -13 51 17 24 18 34 10 64 -12 43 -2 50 43 34 29 -11 38 -10 58 4 36 25
53 17 54 -25z m-9576 -19 c0 -11 -4 -17 -10 -14 -5 3 -10 13 -10 21 0 8 5 14
10 14 6 0 10 -9 10 -21z m9393 -9 c-7 -28 -13 -25 -13 6 0 14 4 23 9 20 5 -3
7 -15 4 -26z m-13 -72 c0 -16 -3 -19 -11 -11 -6 6 -8 16 -5 22 11 17 16 13 16
-11z m-25 -58 c-5 -16 -10 -19 -18 -11 -7 7 -6 15 3 26 17 20 24 13 15 -15z
m-9325 -2 c0 -18 -2 -20 -9 -8 -6 8 -7 18 -5 22 9 14 14 9 14 -14z m-111 -64
c20 -14 28 -15 61 -4 21 7 46 10 55 6 16 -6 16 -8 0 -32 -22 -35 -6 -79 25
-69 16 5 20 2 20 -14 0 -23 -27 -41 -64 -41 -17 0 -31 -10 -46 -34 -24 -39
-41 -38 -56 2 -8 20 -22 31 -52 40 -23 7 -42 16 -42 21 0 4 11 18 25 31 18 17
25 34 25 60 0 53 10 61 49 34z m9408 -16 c-3 -8 -6 -5 -6 6 -1 11 2 17 5 13 3
-3 4 -12 1 -19z m-9270 -50 c-3 -8 -6 -5 -6 6 -1 11 2 17 5 13 3 -3 4 -12 1
-19z m9263 -2 c0 -3 -4 -8 -10 -11 -5 -3 -10 -1 -10 4 0 6 5 11 10 11 6 0 10
-2 10 -4z m-23 -58 c-3 -8 -6 -5 -6 6 -1 11 2 17 5 13 3 -3 4 -12 1 -19z
m-970 -80 c-2 -18 -4 -4 -4 32 0 36 2 50 4 33 2 -18 2 -48 0 -65z m-8240 30
c-3 -8 -6 -5 -6 6 -1 11 2 17 5 13 3 -3 4 -12 1 -19z m9199 -10 c-5 -51 -5
-51 -21 -38 -11 9 -13 16 -5 24 5 5 10 18 10 28 0 10 4 18 9 18 5 0 8 -15 7
-32z m-7746 -13 c0 -8 -4 -17 -10 -20 -6 -4 -10 5 -10 20 0 15 4 24 10 20 6
-3 10 -12 10 -20z m7730 -81 c0 -8 -4 -12 -10 -9 -5 3 -10 10 -10 16 0 5 5 9
10 9 6 0 10 -7 10 -16z m-30 -89 c0 -8 -4 -15 -10 -15 -5 0 -10 7 -10 15 0 8
5 15 10 15 6 0 10 -7 10 -15z m-23 -57 c-3 -8 -6 -5 -6 6 -1 11 2 17 5 13 3
-3 4 -12 1 -19z m-9025 -58 c3 -17 1 -33 -4 -36 -15 -9 -8 -43 11 -53 10 -6
21 -8 24 -5 3 3 15 -12 25 -35 11 -23 16 -43 12 -46 -5 -3 -12 4 -15 16 -5 15
-12 19 -28 15 -12 -3 -30 -6 -40 -6 -10 0 -24 -15 -34 -35 -20 -43 -43 -45
-65 -5 -13 22 -25 30 -45 30 -15 0 -35 5 -43 10 -12 8 -10 14 13 38 24 25 27
34 21 70 -7 47 2 52 50 30 21 -9 32 -8 61 8 19 10 35 22 35 26 0 5 4 8 9 8 5
0 11 -14 13 -30z m9018 22 c0 -5 18 -16 41 -26 33 -15 46 -16 65 -7 48 21 57
15 50 -30 -6 -35 -3 -46 15 -65 27 -29 19 -54 -18 -54 -20 0 -37 -11 -59 -37
l-32 -38 -18 38 c-14 29 -26 40 -55 47 -35 10 -60 42 -45 57 3 4 6 -2 6 -12 0
-17 3 -16 25 5 19 18 25 34 25 67 0 24 -4 43 -10 43 -5 0 -10 5 -10 10 0 6 5
10 10 10 6 0 10 -4 10 -8z m-6385 -42 c3 -5 1 -10 -4 -10 -6 0 -11 5 -11 10 0
6 2 10 4 10 3 0 8 -4 11 -10z m-2605 -40 c0 -5 -2 -10 -4 -10 -3 0 -8 5 -11
10 -3 6 -1 10 4 10 6 0 11 -4 11 -10z m8960 6 c0 -3 -4 -8 -10 -11 -5 -3 -10
-1 -10 4 0 6 5 11 10 11 6 0 10 -2 10 -4z m-35 -75 c3 -5 1 -12 -5 -16 -5 -3
-10 1 -10 9 0 18 6 21 15 7z m-8869 -150 c-8 -19 -7 -26 9 -37 12 -9 21 -11
23 -4 6 17 19 11 25 -12 8 -29 -6 -45 -46 -52 -26 -5 -36 -13 -46 -41 -14 -40
-35 -45 -52 -12 -16 30 -28 37 -66 37 -39 0 -43 19 -14 56 16 20 18 31 10 56
-12 42 1 54 43 39 29 -10 36 -9 73 17 l40 28 6 -25 c3 -14 1 -37 -5 -50z
m8853 49 c9 0 27 -7 39 -16 18 -13 29 -14 54 -5 48 17 51 15 46 -32 -4 -33 -1
-49 13 -66 28 -35 24 -51 -13 -51 -39 0 -51 -7 -67 -37 -17 -32 -35 -28 -54
11 -11 24 -25 36 -46 41 -45 10 -48 25 -13 55 30 25 32 29 23 66 -5 21 -9 31
-10 22 -1 -22 -21 -24 -21 -3 0 8 5 15 10 15 6 0 11 8 11 18 1 16 2 16 6 0 2
-10 12 -18 22 -18z m-79 -120 c0 -5 -5 -10 -11 -10 -5 0 -7 5 -4 10 3 6 8 10
11 10 2 0 4 -4 4 -10z m-8690 -36 c0 -8 -5 -12 -10 -9 -6 4 -8 11 -5 16 9 14
15 11 15 -7z m8667 -18 c-7 -13 -15 -22 -18 -20 -4 2 -2 15 4 28 7 13 15 22
18 20 4 -2 2 -15 -4 -28z m-8637 -51 c0 -7 6 -15 13 -18 8 -3 6 -10 -8 -20
-29 -23 -8 -54 49 -71 15 -5 16 -9 6 -21 -7 -8 -26 -19 -43 -23 -17 -4 -34
-14 -38 -22 -3 -8 -13 -28 -20 -43 l-13 -29 -28 31 c-21 24 -36 31 -63 31 -44
0 -54 20 -27 55 17 22 19 30 9 60 -14 46 -2 59 41 44 27 -9 37 -8 67 11 19 12
35 26 35 31 0 6 5 7 10 4 6 -3 10 -12 10 -20z m3113 14 c43 -11 46 -21 13 -43
-23 -14 -58 -15 -126 -2 -25 5 -70 29 -70 37 0 18 120 24 183 8z m5507 -3 c0
-3 -4 -8 -10 -11 -5 -3 -10 -1 -10 4 0 6 5 11 10 11 6 0 10 -2 10 -4z m56 -37
c4 -7 24 -8 55 -4 54 8 59 1 39 -51 -9 -23 -7 -31 11 -50 30 -32 19 -54 -29
-54 -31 0 -41 -5 -52 -24 -25 -48 -43 -41 -64 27 -3 9 -19 20 -35 23 -41 9
-44 27 -10 60 20 19 29 37 29 59 0 18 3 35 6 38 8 7 40 -8 50 -24z m-76 1 c0
-5 -4 -10 -10 -10 -5 0 -10 5 -10 10 0 6 5 10 10 10 6 0 10 -4 10 -10z m-8556
-52 c6 -4 7 -10 3 -15 -10 -9 -27 16 -26 37 1 13 1 13 6 0 3 -8 11 -18 17 -22z
m8531 3 c-6 -21 -25 -29 -25 -11 0 6 5 10 10 10 6 0 10 8 10 17 0 9 3 14 6 10
3 -3 3 -15 -1 -26z m-5137 -27 c12 -4 25 -17 28 -29 4 -17 24 -30 81 -52 l75
-30 -38 -6 c-20 -3 -47 -16 -59 -27 l-23 -21 -46 45 c-46 46 -64 58 -50 34 4
-7 -1 -6 -12 4 -10 9 -36 19 -56 23 -39 7 -102 48 -91 58 8 9 160 9 191 1z
m5112 -20 c0 -8 -5 -12 -10 -9 -6 4 -8 11 -5 16 9 14 15 11 15 -7z m-8470 -30
c0 -8 -4 -12 -10 -9 -5 3 -10 10 -10 16 0 5 5 9 10 9 6 0 10 -7 10 -16z m8437
-21 c-9 -9 -19 -14 -22 -11 -3 3 2 13 11 22 9 9 19 14 22 11 3 -3 -2 -13 -11
-22z m-73 -117 c-3 -9 -10 -13 -16 -10 -5 3 -4 12 3 20 15 18 22 13 13 -10z
m-6054 -21 c13 -13 9 -15 -32 -15 -41 0 -47 2 -45 21 1 17 6 20 32 15 16 -4
36 -13 45 -21z m-1240 -5 c0 -5 -4 -10 -10 -10 -5 0 -10 5 -10 10 0 6 5 10 10
10 6 0 10 -4 10 -10z m7267 -17 c-9 -9 -20 -13 -24 -9 -4 4 -1 11 7 16 25 16
35 11 17 -7z m-24 -53 c-3 -11 -11 -20 -18 -20 -10 0 -11 5 -2 24 14 28 28 25
20 -4z m-8153 -25 c0 -12 -19 -12 -23 0 -4 9 -1 12 9 8 7 -3 14 -7 14 -8z
m8185 -55 c16 -17 26 -20 62 -14 48 7 51 2 31 -52 -9 -27 -9 -37 5 -58 26 -39
21 -48 -23 -45 -32 3 -45 -2 -67 -23 -32 -31 -50 -26 -55 17 -2 23 -11 34 -40
48 -21 9 -38 21 -38 26 0 5 16 18 35 30 27 16 35 27 35 49 0 47 24 56 55 22z
m-1025 -68 c0 -13 -12 -22 -22 -16 -10 6 -1 24 13 24 5 0 9 -4 9 -8z m-1173
-54 c11 -13 28 -39 38 -58 10 -19 30 -45 45 -57 22 -18 29 -34 34 -77 5 -39
16 -67 39 -97 18 -23 38 -50 45 -60 8 -10 27 -51 43 -91 17 -40 41 -85 55 -99
23 -24 44 -102 44 -168 0 -28 -96 -122 -150 -147 -19 -8 -46 -20 -60 -27 -14
-6 -32 -17 -41 -24 -9 -7 -45 -25 -80 -38 -35 -14 -79 -41 -99 -59 -30 -30
-43 -35 -95 -38 l-60 -3 0 180 c0 99 3 248 7 330 5 83 8 201 8 263 l0 112 38
26 c20 14 52 35 71 47 20 13 38 34 42 50 16 59 43 71 76 35z m1106 7 c4 -8 5
-48 3 -89 -3 -81 -23 -126 -55 -126 -35 0 -44 25 -37 96 9 92 28 134 59 134
14 0 27 -7 30 -15z m941 0 c-4 -8 -11 -15 -16 -15 -6 0 -5 6 2 15 7 8 14 15
16 15 2 0 1 -7 -2 -15z m-7929 -5 c3 -5 1 -10 -4 -10 -6 0 -11 5 -11 10 0 6 2
10 4 10 3 0 8 -4 11 -10z m7888 -54 c-10 -13 -22 -21 -27 -18 -5 3 1 13 13 24
31 24 35 23 14 -6z m56 -40 c19 -20 29 -23 62 -19 44 6 49 -3 23 -46 -15 -25
-15 -30 0 -60 22 -41 13 -53 -30 -45 -30 5 -40 2 -64 -21 -33 -32 -45 -28 -54
20 -5 25 -15 39 -36 50 -38 20 -38 39 0 55 19 8 32 22 36 39 10 45 13 51 27
51 7 0 24 -11 36 -24z m-95 -11 c-4 -8 -11 -15 -16 -15 -6 0 -5 6 2 15 7 8 14
15 16 15 2 0 1 -7 -2 -15z m-4738 -51 c13 -3 24 -10 24 -14 0 -5 -23 -25 -51
-45 l-52 -37 5 -76 c6 -103 4 -110 -40 -117 -55 -9 -64 -17 -79 -68 -13 -43
-16 -47 -46 -47 -42 0 -52 -8 -70 -51 -18 -44 -63 -62 -84 -33 -24 33 -7 89
32 104 29 11 39 33 50 105 5 38 15 57 41 82 19 17 43 52 54 78 16 37 28 49 65
65 25 11 48 27 52 36 7 18 42 35 61 28 8 -2 25 -7 38 -10z m4704 -3 c0 -12
-20 -25 -27 -18 -7 7 6 27 18 27 5 0 9 -4 9 -9z m-7655 -61 c10 -11 15 -23 10
-28 -4 -4 -10 -1 -12 6 -3 7 -11 19 -20 27 -8 8 -10 15 -5 15 5 0 17 -9 27
-20z m7605 1 c-11 -21 -30 -37 -30 -25 0 8 30 44 37 44 2 0 -1 -9 -7 -19z
m-899 -27 c10 -13 10 -24 1 -61 -10 -34 -31 -65 -84 -122 -87 -93 -119 -116
-208 -145 -69 -22 -70 -22 -88 -3 -43 47 -72 60 -136 58 -67 -2 -121 12 -111
30 13 19 50 26 105 19 60 -8 284 23 307 42 7 6 19 22 26 37 8 18 27 31 62 42
40 13 52 21 59 45 23 78 39 92 67 58z m833 -56 c-10 -13 -20 -25 -21 -27 -2
-2 -3 1 -3 7 0 11 27 42 37 42 3 0 -2 -10 -13 -22z m-6020 -70 c7 -12 6 -25
-3 -44 l-12 -28 -19 29 c-14 21 -16 33 -9 47 12 22 28 20 43 -4z m3442 4 c8
-12 11 -149 9 -452 -2 -484 -1 -492 57 -508 63 -17 78 2 108 139 18 80 21 126
21 304 0 116 -3 253 -7 305 -7 114 -3 120 74 113 l52 -6 2 -96 c1 -53 2 -183
3 -289 3 -217 8 -236 76 -258 27 -9 35 -17 37 -42 2 -16 -1 -45 -6 -63 l-9
-34 -11 27 c-13 31 -23 38 -68 48 -52 12 -75 -13 -99 -105 -11 -43 -27 -81
-35 -85 -63 -29 -74 -38 -84 -67 -14 -42 -26 -52 -64 -57 -40 -4 -42 -6 -48
-42 -13 -83 -29 -129 -55 -159 -16 -18 -36 -49 -44 -69 -9 -21 -31 -46 -54
-60 -21 -14 -48 -37 -59 -51 -12 -14 -53 -42 -92 -61 -38 -19 -88 -53 -110
-75 -35 -35 -44 -40 -70 -34 -18 4 -36 2 -44 -4 -13 -11 -50 -15 -270 -30 -76
-5 -150 -12 -163 -15 -57 -15 -247 50 -294 101 -13 14 -46 36 -73 50 -54 27
-193 142 -273 224 -28 30 -64 65 -78 78 -15 13 -35 42 -46 63 -11 21 -25 38
-32 38 -15 0 -59 45 -76 77 -6 13 -28 27 -51 34 -26 8 -47 23 -59 43 -22 34
-20 36 -46 -56 -23 -83 -51 -102 -133 -94 -106 11 -216 60 -251 112 -13 18
-32 36 -42 39 -29 9 -23 32 12 44 17 6 59 40 94 75 79 80 90 86 165 86 74 0
126 -20 135 -52 9 -31 44 -108 49 -108 2 0 17 32 32 71 15 39 36 77 47 84 17
12 22 11 42 -13 34 -40 102 -71 158 -70 34 0 69 -10 122 -35 67 -32 76 -40
106 -94 27 -50 41 -63 81 -81 27 -12 75 -26 106 -31 31 -5 86 -22 122 -39 88
-40 88 -40 193 -56 112 -18 303 -12 339 10 5 3 46 8 92 10 72 4 164 21 129 23
-7 1 -13 8 -13 17 0 8 4 13 9 10 5 -3 14 8 20 24 5 17 7 28 2 26 -4 -3 -8 1
-8 8 0 8 8 11 20 8 16 -4 19 -1 14 11 -4 12 -2 14 10 10 11 -4 14 -2 9 5 -6
10 28 11 60 0 19 -6 132 57 148 83 8 14 14 28 12 30 -14 14 -15 92 -2 124 13
29 14 65 10 183 -7 169 -6 401 2 413 11 19 -41 28 -189 33 -186 7 -240 -2
-256 -43 -7 -14 -27 -39 -46 -54 -19 -15 -42 -42 -51 -60 -18 -35 -38 -57 -69
-75 -17 -10 -14 -13 10 -12 17 1 73 -90 79 -129 2 -9 7 -34 10 -55 7 -36 1
-70 -34 -206 -7 -27 -6 -38 7 -52 13 -14 13 -18 2 -18 -10 0 -11 -2 -2 -8 7
-4 19 -24 28 -45 l15 -37 -27 -1 -28 -1 30 -8 c17 -4 22 -8 11 -9 -14 -1 -16
-4 -8 -14 8 -10 6 -16 -9 -25 -11 -7 -17 -17 -14 -22 7 -11 7 -11 -52 -14 -23
-1 -39 2 -36 7 3 5 -3 5 -13 -1 -34 -18 -94 25 -62 44 7 5 8 2 3 -6 -5 -9 -4
-11 3 -6 17 10 15 39 -2 33 -11 -4 -11 7 1 71 12 61 13 91 4 144 -6 37 -10 71
-9 75 0 5 -2 15 -5 23 -8 20 -14 169 -6 164 3 -2 11 20 18 49 10 44 10 59 -3
95 -8 23 -13 42 -11 42 2 0 -14 31 -36 70 -21 38 -39 76 -39 84 0 8 -4 17 -8
20 -7 4 -16 66 -9 66 1 0 59 7 127 15 69 9 168 15 220 14 168 -2 313 2 374 11
51 8 64 15 102 55 49 50 54 53 70 27z m-1951 -3 c4 -5 6 -117 6 -247 -1 -218
-9 -286 -26 -233 -6 21 -7 41 -2 111 1 19 -5 52 -15 72 -10 20 -27 62 -39 93
-11 30 -24 55 -28 55 -14 0 -9 34 12 87 14 37 28 55 46 62 35 13 39 13 46 0z
m4456 -120 c17 -24 27 -29 55 -27 45 3 51 -7 30 -47 -15 -28 -17 -39 -7 -66
14 -40 2 -51 -42 -38 -25 7 -35 5 -52 -11 -33 -31 -53 -25 -61 18 -4 24 -18
46 -38 64 -17 14 -29 28 -26 30 3 2 21 11 41 20 27 12 38 24 43 48 3 18 4 36
1 40 -14 23 38 -7 56 -31z m-5850 9 c4 -46 -7 -56 -31 -30 -24 26 -25 29 -2
35 29 8 32 7 33 -5z m5743 -33 c-32 -40 -54 -56 -54 -40 0 6 82 85 88 85 2 0
-13 -20 -34 -45z m-7109 -5 c10 -11 13 -20 7 -20 -6 0 -16 9 -22 20 -6 11 -9
20 -7 20 2 0 12 -9 22 -20z m75 -82 c0 -6 -7 -5 -15 2 -8 7 -15 17 -15 22 0 6
7 5 15 -2 8 -7 15 -17 15 -22z m2502 -8 c-1 -13 -10 -29 -20 -36 -15 -11 -18
-9 -26 16 -13 42 -2 62 26 51 16 -6 22 -16 20 -31z m4463 31 c6 -11 -49 -53
-59 -44 -7 7 32 53 45 53 4 0 10 -4 14 -9z m-5565 -20 c0 -19 -22 -23 -38 -7
-15 15 -14 16 11 16 15 0 27 -4 27 -9z m-1305 -91 c27 -29 15 -32 -18 -4 -16
14 -22 24 -14 24 8 0 22 -9 32 -20z m2076 0 c10 -6 19 -15 19 -20 0 -16 -66
-23 -91 -9 l-24 12 30 13 c37 16 42 16 66 4z m-662 -26 c-9 -11 -15 -12 -26
-3 -17 14 1 31 24 22 10 -4 11 -9 2 -19z m5321 6 c0 -5 -4 -10 -10 -10 -5 0
-10 5 -10 10 0 6 5 10 10 10 6 0 10 -4 10 -10z m-30 -25 c0 -12 -33 -55 -41
-55 -14 0 -10 22 8 42 15 17 33 24 33 13z m-4755 -65 c0 -23 -5 -26 -70 -38
-38 -6 -90 -16 -115 -21 -37 -8 -58 -5 -119 15 -40 13 -85 24 -100 25 -23 0
-24 1 -6 8 11 5 23 7 27 4 4 -2 37 3 73 12 37 8 109 14 166 14 55 0 104 2 107
6 14 14 37 -2 37 -25z m-1819 -21 c18 -19 22 -28 11 -24 -19 8 -22 -6 -7 -36
6 -10 20 -19 31 -19 17 0 18 3 8 23 -9 17 -4 15 23 -10 19 -18 39 -33 44 -33
6 0 19 -9 29 -20 22 -24 13 -26 -21 -4 -24 16 -26 16 -52 -7 -39 -34 -41 -40
-35 -71 7 -36 -17 -47 -53 -23 -21 14 -31 15 -51 6 -46 -21 -56 -15 -49 30 5
32 2 46 -14 66 -30 38 -26 53 14 53 28 0 40 7 64 38 16 20 27 43 25 50 -7 19
1 15 33 -19z m2050 13 c29 -19 51 -101 34 -131 -5 -10 -21 -21 -35 -24 -36 -6
-47 25 -35 100 6 32 10 59 10 61 0 5 15 2 26 -6z m4432 -35 c-7 -7 -22 -19
-33 -27 -15 -11 -14 -7 5 16 14 17 28 29 33 27 4 -2 1 -10 -5 -16z m-128 -112
c-7 -9 -23 -21 -34 -27 -15 -8 -13 -3 9 20 29 31 50 37 25 7z m-6126 -61 c9
-8 16 -18 16 -20 0 -7 -38 15 -45 26 -10 16 12 12 29 -6z m6046 -3 c0 -5 -7
-11 -14 -14 -10 -4 -13 -1 -9 9 6 15 23 19 23 5z m-94 -76 c-9 -9 -16 -13 -16
-8 0 12 22 34 28 28 2 -2 -3 -11 -12 -20z m-46 -35 c0 -5 -2 -10 -4 -10 -2 0
-12 -3 -22 -7 -16 -6 -17 -5 -4 10 17 19 30 22 30 7z m-5700 -50 c0 -5 -2 -10
-4 -10 -3 0 -8 5 -11 10 -3 6 -1 10 4 10 6 0 11 -4 11 -10z m5630 -5 c-7 -8
-17 -15 -22 -15 -6 0 -5 7 2 15 7 8 17 15 22 15 6 0 5 -7 -2 -15z m-40 -24 c0
-5 -7 -12 -16 -15 -24 -9 -28 -7 -14 9 14 17 30 20 30 6z m-5430 -100 c0 -15
5 -32 12 -39 13 -13 64 -16 71 -4 2 4 2 1 1 -6 -2 -8 4 -10 20 -6 16 4 25 1
29 -11 5 -12 3 -14 -10 -6 -13 7 -23 1 -44 -25 -22 -28 -26 -41 -22 -74 6 -44
-4 -50 -51 -29 -20 10 -30 9 -50 -5 -44 -28 -59 -22 -52 22 5 34 2 42 -25 68
-28 26 -29 30 -13 41 10 7 28 13 41 13 13 0 23 4 23 9 0 4 11 25 25 45 13 20
20 36 14 36 -6 0 -7 5 -4 10 11 18 35 -9 35 -39z m5184 -66 c-27 -20 -51 -20
-34 0 7 8 22 15 33 15 20 0 20 0 1 -15z m-4954 -55 c0 -5 -2 -10 -4 -10 -3 0
-8 5 -11 10 -3 6 -1 10 4 10 6 0 11 -4 11 -10z m4840 0 c0 -5 -2 -10 -4 -10
-2 0 -12 -3 -22 -7 -16 -6 -17 -5 -4 10 17 19 30 22 30 7z m-3791 -9 c38 -10
36 -28 -5 -41 -42 -14 -181 -8 -210 8 -16 9 -12 12 21 20 75 20 152 25 194 13z
m3870 -29 c11 -24 25 -35 53 -44 21 -6 38 -15 38 -19 0 -4 -14 -19 -31 -33
-22 -19 -30 -34 -29 -53 4 -60 -6 -67 -49 -34 -19 15 -29 16 -62 7 -47 -12
-54 -6 -40 35 10 29 8 37 -14 68 -28 40 -21 51 32 51 26 0 36 6 48 31 19 36
35 34 54 -9z m-189 -21 c0 -12 -42 -42 -49 -36 -5 6 29 45 41 45 4 0 8 -4 8
-9z m-4570 -31 c0 -5 -5 -10 -11 -10 -5 0 -7 5 -4 10 3 6 8 10 11 10 2 0 4 -4
4 -10z m30 -20 c0 -5 -4 -10 -10 -10 -5 0 -10 5 -10 10 0 6 5 10 10 10 6 0 10
-4 10 -10z m511 -10 c10 -6 19 -15 19 -19 0 -9 -113 -37 -185 -46 -58 -8 -75
-15 -75 -30 0 -25 -21 -28 -61 -9 -43 21 -51 36 -16 33 53 -5 64 0 60 25 -5
24 10 33 82 49 40 9 157 7 176 -3z m-451 -20 c0 -5 -2 -10 -4 -10 -3 0 -8 5
-11 10 -3 6 -1 10 4 10 6 0 11 -4 11 -10z m37 -16 c-3 -3 -12 -4 -19 -1 -8 3
-5 6 6 6 11 1 17 -2 13 -5z m672 -79 c12 -11 7 -15 -30 -26 -78 -21 -136 -9
-126 26 2 6 18 18 37 27 30 15 36 16 69 2 20 -8 42 -21 50 -29z m3521 35 c0
-5 -4 -10 -10 -10 -5 0 -10 5 -10 10 0 6 5 10 10 10 6 0 10 -4 10 -10z m-30
-14 c0 -11 -19 -15 -25 -6 -3 5 1 10 9 10 9 0 16 -2 16 -4z m-40 -16 c0 -5 -5
-10 -11 -10 -5 0 -7 5 -4 10 3 6 8 10 11 10 2 0 4 -4 4 -10z m62 -47 c6 -24
18 -37 43 -47 43 -18 44 -28 5 -56 -20 -15 -30 -30 -30 -48 0 -50 -14 -59 -52
-30 -27 21 -38 23 -61 16 -15 -6 -34 -7 -43 -4 -13 5 -13 10 1 42 14 34 14 38
-5 64 -11 15 -20 33 -20 39 0 6 -4 11 -10 11 -5 0 -10 5 -10 12 0 9 3 9 12 0
7 -7 31 -12 54 -12 34 0 45 5 58 26 22 33 48 27 58 -13z m-122 11 c0 -2 -7 -4
-15 -4 -8 0 -15 4 -15 10 0 5 7 7 15 4 8 -4 15 -8 15 -10z m-3562 -66 c2 -29
-1 -48 -7 -48 -6 0 -11 -8 -11 -18 0 -10 -7 -28 -16 -40 -14 -21 -14 -26 1
-58 9 -20 14 -38 11 -42 -4 -3 -25 -5 -47 -4 -28 2 -48 -3 -67 -18 -25 -20
-27 -20 -39 -4 -7 10 -13 28 -13 40 0 15 -12 29 -36 43 -40 24 -38 35 12 56
25 10 34 20 34 37 0 13 7 34 16 46 14 20 14 22 0 22 -9 0 -16 5 -16 10 0 6 -9
10 -20 10 -11 0 -20 3 -20 8 0 4 48 7 108 7 l107 0 3 -47z m672 20 c66 -74
123 -136 180 -195 33 -35 60 -67 60 -73 0 -5 11 -12 25 -16 14 -3 25 -11 25
-16 0 -10 -20 -8 -97 8 -40 8 -43 -7 -7 -31 22 -14 30 -15 55 -4 41 17 56 1
39 -40 -11 -27 -10 -33 9 -57 32 -40 27 -54 -17 -54 -31 0 -43 -6 -60 -30 -29
-39 -40 -38 -58 5 -28 67 -150 91 -205 39 -14 -13 -28 -24 -31 -24 -4 0 -12
16 -18 35 -8 26 -21 39 -46 50 -42 17 -43 28 -4 55 23 17 30 29 30 56 0 19 4
34 10 34 5 0 7 6 5 13 -5 12 -48 27 -215 72 -112 30 -130 31 -130 8 -1 -10 -7
-29 -14 -43 -12 -21 -12 -29 1 -53 22 -43 11 -59 -33 -51 -30 6 -40 2 -65 -22
-25 -24 -31 -26 -39 -14 -5 8 -10 27 -10 41 0 19 -9 29 -35 42 -19 9 -35 21
-35 27 0 6 16 20 35 31 27 16 35 28 35 49 0 16 4 31 10 35 5 3 7 12 3 20 -3 8
0 15 6 15 6 0 11 -6 11 -13 0 -8 11 -24 24 -36 20 -19 31 -22 61 -17 37 7 40
26 4 26 -11 0 -17 5 -14 10 3 6 19 10 34 10 46 0 135 34 178 69 31 25 61 36
129 51 123 26 131 25 164 -12z m2770 2 c0 -5 -4 -10 -10 -10 -5 0 -10 5 -10
10 0 6 5 10 10 10 6 0 10 -4 10 -10z m-30 -14 c0 -3 -4 -8 -10 -11 -5 -3 -10
-1 -10 4 0 6 5 11 10 11 6 0 10 -2 10 -4z m-45 -16 c3 -5 0 -10 -8 -10 -8 0
-28 -7 -43 -15 -33 -17 -54 -19 -54 -6 0 8 32 23 57 25 6 1 15 5 19 9 10 10
22 9 29 -3z m85 -45 c0 -14 11 -27 35 -38 43 -20 45 -42 5 -62 -21 -11 -31
-25 -36 -50 -7 -39 -26 -45 -56 -18 -13 11 -33 16 -63 14 -25 -1 -45 0 -45 2
0 3 7 21 16 42 14 33 14 39 0 61 -28 42 -21 57 23 51 34 -4 43 -1 67 25 26 27
30 28 41 12 7 -10 13 -27 13 -39z m-3410 -5 c0 -5 -2 -10 -4 -10 -3 0 -8 5
-11 10 -3 6 -1 10 4 10 6 0 11 -4 11 -10z m3200 0 c0 -5 -7 -10 -15 -10 -8 0
-15 5 -15 10 0 6 7 10 15 10 8 0 15 -4 15 -10z m-43 -23 c-1 -7 4 -31 11 -53
9 -31 20 -45 42 -54 39 -16 38 -33 -5 -53 -22 -11 -35 -24 -35 -36 0 -51 -24
-65 -55 -31 -13 14 -31 20 -62 20 -47 0 -52 8 -29 50 12 21 12 29 0 52 -8 15
-14 34 -14 43 0 13 -9 16 -40 14 -22 -2 -39 1 -37 6 2 11 16 10 100 -7 54 -10
59 -10 82 12 17 16 22 27 15 35 -5 7 -7 14 -4 18 9 9 32 -3 31 -16z m-3057 -7
c0 -5 -4 -10 -10 -10 -5 0 -10 5 -10 10 0 6 5 10 10 10 6 0 10 -4 10 -10z
m3000 0 c0 -5 -4 -10 -10 -10 -5 0 -10 5 -10 10 0 6 5 10 10 10 6 0 10 -4 10
-10z m-43 -16 c-3 -3 -12 -4 -19 -1 -8 3 -5 6 6 6 11 1 17 -2 13 -5z m-157
-34 c0 -5 -4 -10 -10 -10 -5 0 -10 5 -10 10 0 6 5 10 10 10 6 0 10 -4 10 -10z
m-43 -16 c-3 -3 -12 -4 -19 -1 -8 3 -5 6 6 6 11 1 17 -2 13 -5z m-57 -14 c0
-5 -7 -10 -15 -10 -8 0 -15 5 -15 10 0 6 7 10 15 10 8 0 15 -4 15 -10z m-64
-19 c-10 -16 -46 -20 -46 -5 0 8 10 14 26 14 14 0 23 -4 20 -9z m-68 -46 c7
-14 12 -37 12 -50 0 -15 11 -31 30 -45 39 -27 38 -37 -5 -57 -27 -13 -38 -26
-46 -55 -5 -21 -12 -38 -15 -38 -3 0 -17 13 -32 29 -21 23 -37 30 -72 32 -64
3 -127 -26 -135 -62 -10 -43 -26 -46 -55 -11 -22 27 -33 32 -71 32 -68 0 -120
-22 -134 -57 -20 -46 -33 -48 -56 -9 -18 32 -26 36 -60 36 -44 0 -48 10 -18
48 15 20 19 34 14 63 -8 45 1 51 48 37 31 -10 40 -9 57 7 28 26 51 13 48 -29
-1 -26 4 -39 28 -59 33 -30 44 -33 44 -13 0 7 7 19 16 27 12 10 14 23 9 61 -8
53 0 59 49 37 20 -10 29 -8 55 10 37 27 51 21 51 -24 0 -24 7 -39 26 -54 35
-28 46 -26 66 9 13 23 15 37 8 56 -19 49 -14 57 33 50 33 -5 49 -2 72 14 21
14 25 20 13 20 -9 0 -20 5 -23 10 -3 6 2 10 13 10 10 0 24 -11 30 -25z m-81
-1 c-3 -3 -12 -4 -19 -1 -8 3 -5 6 6 6 11 1 17 -2 13 -5z m-87 -8 c0 -2 -7 -6
-15 -10 -8 -3 -15 -1 -15 4 0 6 7 10 15 10 8 0 15 -2 15 -4z m-85 -16 c4 -6
-5 -10 -19 -10 -14 0 -26 5 -26 10 0 6 9 10 19 10 11 0 23 -4 26 -10z m-1392
-32 c-2 -5 -5 -8 -8 -8 -61 0 -69 2 -50 10 23 10 61 9 58 -2z m157 -18 c0 -5
-20 -10 -45 -10 -25 0 -45 5 -45 10 0 6 20 10 45 10 25 0 45 -4 45 -10z m-118
-27 c16 -14 24 -15 52 -5 54 20 59 17 52 -29 -5 -32 -2 -46 14 -69 29 -41 25
-50 -20 -50 -35 0 -43 -4 -58 -30 -24 -42 -38 -44 -57 -4 -10 22 -29 39 -51
49 -41 17 -42 27 -9 53 19 15 25 29 25 61 0 46 19 54 52 24z m383 7 c-22 -4
-67 -5 -100 0 -55 7 -52 7 40 8 76 0 90 -2 60 -8z m-135 -27 c24 -14 34 -15
55 -5 48 22 58 16 52 -27 -4 -30 0 -45 18 -67 27 -34 18 -54 -26 -54 -22 0
-32 -7 -44 -30 -20 -38 -40 -38 -60 0 -11 21 -27 32 -55 40 -22 6 -40 14 -40
19 0 4 13 20 30 36 22 21 28 34 24 52 -6 23 0 53 12 53 3 0 19 -8 34 -17z
m615 -32 c1 -30 6 -46 18 -52 9 -6 21 -19 27 -29 9 -17 6 -21 -33 -30 -34 -9
-46 -18 -54 -41 -14 -37 -38 -37 -58 1 -11 22 -23 30 -43 30 -50 0 -59 14 -30
52 19 26 24 41 20 71 -5 41 2 44 53 25 27 -9 36 -8 56 6 34 23 44 15 44 -33z"/>
<path d="M6260 8916 c0 -10 28 -13 41 -5 10 6 7 9 -13 9 -16 0 -28 -2 -28 -4z"/>
<path d="M6196 8890 c-3 -14 -7 -41 -9 -60 -2 -29 1 -35 18 -35 17 0 20 7 21
43 1 23 -5 50 -12 60 -11 16 -13 15 -18 -8z"/>
<path d="M6380 8715 c-7 -8 -32 -24 -56 -34 -64 -29 -86 -70 -80 -151 5 -80
17 -111 50 -137 25 -20 25 -21 10 -68 -17 -59 -10 -114 14 -110 10 1 20 -2 24
-8 3 -6 21 -10 40 -9 42 2 55 -23 50 -95 -4 -58 -24 -71 -43 -29 -11 23 -47
46 -73 46 -15 0 -26 -21 -26 -52 0 -11 -16 -36 -36 -54 -32 -31 -41 -34 -97
-34 -34 0 -113 5 -175 11 -129 12 -134 10 -163 -57 -13 -32 -29 -48 -68 -70
-33 -17 -51 -34 -51 -45 0 -32 30 -94 51 -108 19 -11 27 -9 68 20 25 18 62 47
83 65 20 18 45 37 56 43 53 28 216 19 287 -16 35 -18 85 -70 110 -116 9 -17
31 -41 49 -52 31 -21 31 -22 28 -93 -3 -69 -2 -73 26 -102 50 -49 140 -39 173
19 16 28 16 29 -18 56 -52 41 -74 82 -61 114 21 54 26 180 12 274 -8 51 -17
175 -20 277 -6 176 -8 188 -35 245 -16 33 -33 85 -39 115 -14 76 -50 170 -65
170 -7 0 -18 -7 -25 -15z"/>
<path d="M6082 8708 c-10 -10 -10 -14 3 -53 6 -19 7 -19 20 5 8 14 14 30 15
36 0 17 -26 24 -38 12z"/>
<path d="M4346 8510 c-20 -87 -20 -222 -1 -323 8 -43 15 -95 15 -115 0 -36 0
-36 15 -15 9 12 22 42 31 65 8 24 33 62 55 84 23 23 41 45 40 48 -1 3 7 21 16
39 13 23 18 53 17 110 -1 96 -14 124 -68 138 -23 6 -55 17 -73 24 l-32 14 -15
-69z"/>
<path d="M6060 8549 c-30 -23 -129 -36 -298 -38 -64 -1 -135 -6 -157 -11 -22
-5 -58 -10 -80 -11 l-40 -2 50 -8 c72 -13 258 -29 416 -35 120 -5 140 -4 163
11 30 20 30 47 0 93 -17 26 -22 27 -54 1z"/>
<path d="M4670 8511 c-14 -27 -13 -134 2 -149 13 -13 125 -15 166 -4 46 14 31
31 -46 52 -37 9 -47 18 -73 65 -17 30 -33 55 -35 55 -2 0 -8 -9 -14 -19z"/>
<path d="M5030 8520 c-142 -20 -163 -74 -31 -79 33 -1 70 -4 82 -6 23 -5 287
30 328 43 17 6 -7 12 -90 25 -153 22 -223 27 -289 17z"/>
<path d="M4552 7971 c-9 -16 -40 -44 -70 -62 -29 -17 -57 -40 -62 -50 -22 -41
1 -233 35 -299 16 -31 19 -32 58 -26 32 5 49 15 72 44 64 80 145 150 192 168
59 23 180 24 238 2 33 -12 45 -24 66 -69 36 -75 37 -141 3 -216 -15 -32 -26
-63 -25 -70 1 -7 -15 -20 -36 -28 -42 -18 -103 -57 -103 -66 0 -11 80 -20 116
-13 28 5 34 11 34 30 0 17 8 28 26 34 35 14 530 33 619 25 101 -10 374 -7 434
5 33 6 69 6 104 0 105 -20 177 33 97 72 -29 14 -44 15 -85 7 -63 -13 -59 -13
-190 0 -60 5 -130 17 -154 26 -42 14 -47 14 -85 -5 -87 -41 -213 -52 -434 -37
-133 9 -229 29 -253 54 -15 15 -16 25 -8 66 8 37 17 51 39 62 41 21 123 105
108 109 -7 3 -30 10 -51 16 -32 10 -42 20 -62 63 -33 72 -44 83 -106 106 -54
21 -54 21 -114 2 -33 -11 -105 -22 -160 -25 -91 -5 -103 -4 -140 17 -23 13
-46 36 -54 55 -18 40 -27 40 -49 3z"/>
<path d="M3162 7847 c-14 -16 -4 -57 14 -57 21 0 45 41 32 57 -13 17 -33 17
-46 0z"/>
<path d="M7690 7668 c-8 -13 -17 -50 -20 -84 -5 -58 -4 -60 19 -62 45 -4 104
-45 116 -81 13 -40 20 -28 24 40 2 39 -1 47 -22 56 -18 8 -26 22 -31 55 -4 26
-17 54 -33 70 -32 34 -34 34 -53 6z"/>
<path d="M7602 7511 c-7 -4 -15 -31 -17 -59 -4 -41 -2 -52 10 -52 8 0 16 10
17 23 2 36 3 41 16 63 16 29 2 43 -26 25z"/>
<path d="M4514 7461 c-36 -16 -42 -24 -47 -59 -11 -63 -33 -83 -113 -97 -58
-11 -63 -13 -29 -14 23 0 66 -8 97 -16 51 -13 59 -13 106 5 37 14 58 17 83 10
19 -4 71 -14 116 -21 73 -11 86 -10 127 5 25 10 46 22 46 26 0 19 -47 61 -76
69 -23 6 -46 4 -85 -9 -70 -24 -97 -13 -115 48 -22 77 -39 85 -110 53z"/>
<path d="M7695 7301 c-6 -11 9 -23 19 -14 9 9 7 23 -3 23 -6 0 -12 -4 -16 -9z"/>
<path d="M3473 7214 c-30 -21 -29 -38 3 -59 20 -13 38 -15 77 -10 72 9 197 37
197 45 0 14 -80 32 -165 36 -73 4 -94 1 -112 -12z"/>
<path d="M3385 7013 c-3 -23 -3 -63 1 -90 l7 -48 13 30 c17 39 17 94 0 124
-14 24 -14 24 -21 -16z"/>
<path d="M8562 3768 c-15 -15 -16 -55 0 -64 6 -4 17 1 25 11 16 23 16 27 0 48
-10 14 -15 15 -25 5z"/>
<path d="M2727 3317 c-16 -11 -16 -15 -1 -62 22 -65 29 -72 42 -38 22 58 23
92 2 103 -23 13 -23 13 -43 -3z"/>
<path d="M2960 3312 c0 -4 9 -8 20 -9 11 -1 20 2 20 8 0 5 -9 9 -20 9 -11 0
-20 -4 -20 -8z"/>
<path d="M5848 1283 c7 -3 16 -2 19 1 4 3 -2 6 -13 5 -11 0 -14 -3 -6 -6z"/>
<path d="M6504 1269 c-8 -14 11 -33 25 -25 11 7 4 36 -9 36 -5 0 -12 -5 -16
-11z"/>
<path d="M3611 951 c-8 -5 -4 -14 13 -30 19 -18 29 -21 56 -14 l32 9 -28 13
c-16 7 -36 17 -45 21 -9 5 -21 5 -28 1z"/>
<path d="M4327 734 c-3 -4 5 -15 18 -26 18 -14 33 -18 55 -13 43 9 47 25 6 25
-19 0 -38 5 -41 10 -7 11 -28 13 -38 4z"/>
<path d="M4450 689 c0 -11 -5 -30 -11 -41 -9 -16 -7 -28 7 -54 22 -40 30 -41
66 -11 20 16 28 33 30 64 1 23 0 44 -2 46 -3 2 -24 7 -47 11 -39 6 -43 4 -43
-15z"/>
<path d="M5397 10435 c13 -27 25 -36 51 -41 42 -8 51 -28 23 -58 -16 -17 -20
-33 -19 -69 l2 -47 47 0 46 0 6 48 c5 41 2 50 -21 74 -30 32 -26 39 24 47 28
5 42 15 61 44 l23 37 -130 0 -130 0 17 -35z"/>
<path d="M5339 10240 l-24 -19 60 0 60 0 -24 19 c-13 11 -29 20 -36 20 -7 0
-23 -9 -36 -20z"/>
<path d="M8128 9614 c-3 -29 2 -44 26 -75 19 -22 40 -38 53 -38 12 -1 25 -5
28 -11 3 -5 17 -10 30 -10 13 0 27 5 30 10 3 6 15 10 25 10 12 0 17 5 14 13
-4 11 -185 137 -197 137 -3 0 -7 -16 -9 -36z"/>
<path d="M2135 9008 c-9 -14 -11 -24 -5 -26 14 -5 40 17 40 34 0 21 -17 17
-35 -8z"/>
<path d="M1780 8655 c-13 -15 -5 -39 11 -30 5 4 14 15 19 26 8 15 7 19 -3 19
-8 0 -20 -7 -27 -15z"/>
<path d="M1327 8063 c-10 -9 -8 -33 2 -33 5 0 11 9 14 20 5 20 -3 26 -16 13z"/>
<path d="M550 5695 c-12 -15 -5 -55 11 -55 5 0 9 16 9 35 0 39 -2 41 -20 20z"/>
<path d="M549 5189 c-9 -17 -8 -25 5 -37 15 -15 16 -13 16 21 0 42 -5 46 -21
16z"/>
</g>
</svg>
